<svg width="15" height="66" viewBox="0 0 15 66" fill="none" xmlns="http://www.w3.org/2000/svg">
<path fill-rule="evenodd" clip-rule="evenodd" d="M14.1896 6.77597V58.3991C14.1896 62.0571 11.2333 65.014 7.57599 65.014C3.91867 65.014 0.962402 62.0571 0.962402 58.3991V6.77597C0.962402 3.118 3.91867 0.161133 7.57599 0.161133C11.2333 0.161133 14.1896 3.13324 14.1896 6.77597ZM7.57568 2.9352C9.54147 2.9352 11.1263 4.53555 11.1263 6.50171C11.1263 8.46788 9.54147 10.053 7.57568 10.053C5.60986 10.053 4.02505 8.46788 4.02505 6.50171C4.02505 4.53555 5.62509 2.9352 7.57568 2.9352ZM11.1263 41.1C11.1263 39.1338 9.54147 37.5335 7.57568 37.5335C5.62509 37.5335 4.02505 39.1338 4.02505 41.1C4.02505 43.0662 5.60986 44.6513 7.57568 44.6513C9.54147 44.6513 11.1263 43.0662 11.1263 41.1ZM7.57568 20.2345C9.54147 20.2345 11.1263 21.8349 11.1263 23.801C11.1263 25.7672 9.54147 27.3676 7.57568 27.3676C5.60986 27.3676 4.02505 25.7672 4.02505 23.801C4.02505 21.8349 5.62509 20.2345 7.57568 20.2345ZM11.1263 58.3993C11.1263 56.4332 9.54147 54.8328 7.57568 54.8328C5.62509 54.8328 4.02505 56.4332 4.02505 58.3993C4.02505 60.3655 5.60986 61.9506 7.57568 61.9506C9.54147 61.9506 11.1263 60.3655 11.1263 58.3993Z" fill="white"/>
</svg>
