<svg width="11" height="22" viewBox="0 0 11 22" fill="none" xmlns="http://www.w3.org/2000/svg">
<path fill-rule="evenodd" clip-rule="evenodd" d="M10.16 5.37988V16.9199C10.16 19.3998 8.10999 21.4199 5.57001 21.4199C3.03003 21.4199 0.97998 19.4099 0.97998 16.9199V5.37988C0.97998 2.8999 3.03003 0.879883 5.57001 0.879883C8.10999 0.879883 10.16 2.88989 10.16 5.37988ZM5.50995 3.05005C4.21997 3.05005 3.16992 4.10004 3.16992 5.38007C3.16992 6.6601 4.21997 7.72003 5.50995 7.72003C6.79993 7.72003 7.83997 6.68005 7.83997 5.38007C7.83997 4.08008 6.78998 3.05005 5.50995 3.05005ZM3.1499 16.91C3.1499 15.63 4.19989 14.5801 5.48987 14.5801C6.77985 14.5801 7.81989 15.6201 7.81989 16.91C7.81989 18.2 6.77985 19.2501 5.48987 19.2501C4.19989 19.2501 3.1499 18.1901 3.1499 16.91Z" fill="white"/>
</svg>
