<svg width="10" height="32" viewBox="0 0 10 32" fill="none" xmlns="http://www.w3.org/2000/svg">
<path fill-rule="evenodd" clip-rule="evenodd" d="M9.60992 27.2199V4.69989C9.60992 2.2999 7.66992 0.359863 5.26993 0.359863C2.86993 0.359863 0.929932 2.2999 0.929932 4.69989V27.2199C0.929932 29.6199 2.86993 31.5599 5.26993 31.5599C7.66992 31.5599 9.60992 29.6199 9.60992 27.2199ZM7.61993 4.50992C7.61993 3.21991 6.56995 2.16992 5.27994 2.16992C3.99994 2.16992 2.94995 3.22992 2.94995 4.50992C2.94995 5.78992 3.98993 6.8399 5.27994 6.8399C6.56995 6.8399 7.61993 5.79993 7.61993 4.50992ZM5.27994 24.8701C6.56995 24.8701 7.61993 25.9201 7.61993 27.2101C7.61993 28.5001 6.56995 29.5401 5.27994 29.5401C3.98993 29.5401 2.94995 28.5001 2.94995 27.2101C2.94995 25.9201 3.99994 24.8701 5.27994 24.8701ZM7.61993 15.86C7.61993 14.57 6.56995 13.52 5.27994 13.52C3.99994 13.52 2.94995 14.58 2.94995 15.86C2.94995 17.14 3.98993 18.19 5.27994 18.19C6.56995 18.19 7.61993 17.15 7.61993 15.86Z" fill="white"/>
</svg>
