<svg width="10" height="50" viewBox="0 0 10 50" fill="none" xmlns="http://www.w3.org/2000/svg">
<path fill-rule="evenodd" clip-rule="evenodd" d="M9.92999 5.52008V44.9401C9.92999 47.5201 7.88 49.6201 5.34003 49.6201C2.80005 49.6201 0.75 47.5201 0.75 44.9401V5.52008C0.75 2.94009 2.80005 0.840088 5.34003 0.840088C7.88 0.840088 9.92999 2.93008 9.92999 5.52008ZM5.34003 18.26C6.63 18.26 7.67999 19.3 7.67999 20.59C7.67999 21.88 6.63 22.93 5.34003 22.93C4.05005 22.93 3.01001 21.88 3.01001 20.59C3.01001 19.3 4.06 18.26 5.34003 18.26ZM7.67999 32.13C7.67999 30.84 6.63995 29.79 5.34998 29.79C4.06995 29.79 3.02002 30.84 3.02002 32.13C3.02002 33.42 4.06 34.47 5.34998 34.47C6.63995 34.47 7.67999 33.42 7.67999 32.13ZM5.34003 6.97998C6.63 6.97998 7.67999 8.02997 7.67999 9.31998C7.67999 10.61 6.63 11.65 5.34003 11.65C4.05005 11.65 3.01001 10.6 3.01001 9.31998C3.01001 8.03998 4.06 6.97998 5.34003 6.97998ZM7.74005 43.6C7.74005 42.32 6.70001 41.27 5.41003 41.27C4.13 41.27 3.08008 42.31 3.08008 43.6C3.08008 44.89 4.13 45.94 5.41003 45.94C6.69006 45.94 7.74005 44.88 7.74005 43.6Z" fill="white"/>
</svg>
