<svg width="430" height="462" viewBox="0 0 430 462" fill="none" xmlns="http://www.w3.org/2000/svg">
<path d="M257.912 23.5199H277.862V43.4737H257.912V23.5199Z" stroke="white" stroke-width="3"/>
<path d="M271.128 33.4694C271.514 33.4694 271.85 33.4804 272.112 33.5022C272.374 33.524 272.648 33.5895 272.885 33.6659C273.122 33.7642 273.308 33.8952 273.446 34.0917C273.583 34.2991 273.67 34.5611 273.67 34.8996C273.67 35.3472 273.495 35.7074 273.171 35.9803C272.822 36.2751 272.399 36.4061 271.888 36.4061C271.277 36.4061 270.816 36.2314 270.492 35.8712C270.168 35.5218 269.981 35.0742 269.956 34.5066H267.838C267.838 35.6092 268.212 36.4607 268.947 37.072C269.682 37.6943 270.667 38 271.913 38C272.461 38 272.984 37.9345 273.47 37.7817C273.956 37.6397 274.392 37.4432 274.791 37.1594C275.165 36.8974 275.464 36.5699 275.688 36.1659C275.888 35.7729 276 35.3253 276 34.8341C276 34.2991 275.826 33.8188 275.477 33.4149C275.115 33.0218 274.642 32.7708 274.056 32.6507V32.6288C274.542 32.5087 274.941 32.2686 275.202 31.9192C275.464 31.5589 275.589 31.155 275.589 30.6638C275.589 30.2489 275.477 29.8777 275.277 29.5393C275.078 29.2118 274.791 28.9389 274.43 28.6987C274.069 28.4694 273.657 28.2948 273.234 28.1747C272.797 28.0546 272.361 28 271.9 28C270.791 28 269.882 28.3057 269.209 28.917C268.523 29.5393 268.162 30.3363 268.112 31.3188H270.231C270.231 30.8166 270.393 30.3908 270.679 30.0742C270.978 29.7577 271.389 29.6048 271.913 29.6048C272.336 29.6048 272.71 29.714 273.009 29.9432C273.308 30.1725 273.47 30.4891 273.47 30.8821C273.47 31.1114 273.408 31.3079 273.296 31.4607C273.184 31.6245 273.034 31.7446 272.847 31.8319C272.66 31.9301 272.449 31.9847 272.237 32.0284C272 32.0721 271.763 32.0939 271.514 32.0939H271.315L271.14 32.083V33.4585L271.128 33.4694ZM264.984 28.2074H263.215C263.103 28.8843 262.779 29.3646 262.193 29.6594C261.607 29.9651 260.897 30.1179 260 30.1179V31.5917H262.754V37.8253H264.984V28.2074Z" fill="#231F20"/>
<path d="M428.945 60.4438C428.793 58.3253 427.04 57.9595 425.562 57.9595C423.215 57.9595 422.53 59.3769 422.53 60.4743C422.53 63.2788 427.193 62.3338 427.193 63.5988C427.193 63.8732 426.949 64.3761 425.943 64.3761C424.693 64.3761 424.297 63.9036 424.297 63.2787H422.271C422.331 65.2906 424.175 65.8851 425.882 65.8851C427.055 65.8851 429.174 65.4888 429.174 63.3092C429.174 60.5353 424.465 61.404 424.465 60.2152C424.465 59.8951 424.602 59.4836 425.684 59.4836C426.766 59.4836 426.918 59.9866 427.01 60.4743H428.945V60.4438ZM419.345 61.907C419.345 62.8672 419.055 64.1932 417.531 64.1932C416.007 64.1932 415.718 62.8672 415.718 61.907C415.718 60.9468 416.007 59.6208 417.531 59.6208C419.055 59.6208 419.345 60.9468 419.345 61.907ZM421.387 61.907C421.387 59.194 419.558 57.9442 417.546 57.9442C415.535 57.9442 413.706 59.194 413.706 61.907C413.706 64.62 415.52 65.8546 417.546 65.8546C419.573 65.8546 421.387 64.6048 421.387 61.907ZM412.304 60.4591C412.304 58.813 411.161 57.9442 409.683 57.9442C408.617 57.9442 407.763 58.4929 407.504 59.1178H407.474V55.5208H405.493V65.6564H407.474V61.3431C407.474 60.2 408.144 59.6055 409.028 59.6055C410.293 59.6055 410.308 60.5353 410.308 61.084V65.6412H412.289V60.4438L412.304 60.4591ZM403.618 55.5208H401.637V65.6564H403.618V55.5208ZM399.732 58.1423H397.751V62.4862C397.751 63.8275 396.867 64.1932 396.227 64.1932C395.618 64.1932 394.947 63.9646 394.947 62.8063V58.1423H392.966V63.0806C392.966 65.0011 394.033 65.8546 395.526 65.8546C396.578 65.8546 397.37 65.3973 397.812 64.6048H397.843V65.6717H399.732V58.1576V58.1423ZM387.45 65.6564H389.431V61.7394C389.431 60.9011 389.72 59.9409 391.26 59.9409C391.442 59.9409 391.656 59.9408 391.823 59.9713V57.9595L391.442 57.929C390.239 57.929 389.797 58.6606 389.385 59.4226H389.355V58.1271H387.465V65.6412L387.45 65.6564ZM383.762 62.9587C383.762 63.8732 382.878 64.4371 381.994 64.4371C381.613 64.4371 381.08 64.2237 381.08 63.5379C381.08 62.7148 381.69 62.5319 382.421 62.41C383.244 62.2728 383.564 62.1509 383.762 61.9985V62.9587ZM385.697 60.1238C385.697 58.2795 383.762 57.9442 382.695 57.9442C381.156 57.9442 379.556 58.2643 379.328 60.5657H381.232C381.293 60.1237 381.461 59.5141 382.452 59.5141C382.954 59.5141 383.747 59.5598 383.747 60.3829C383.747 60.8096 383.366 60.9316 383.061 60.9773L381.278 61.2516C380.029 61.4345 379.084 62.1814 379.084 63.6598C379.084 65.2144 380.242 65.8546 381.37 65.8546C382.711 65.8546 383.351 65.2297 383.793 64.7724C383.838 65.1992 383.869 65.3059 383.975 65.6564H386.109V65.3669C385.865 65.2754 385.667 65.0773 385.667 64.1932V60.1238H385.697ZM377.758 58.1423H375.777V62.4862C375.777 63.8275 374.893 64.1932 374.253 64.1932C373.644 64.1932 372.973 63.9646 372.973 62.8063V58.1423H370.992V63.0806C370.992 65.0011 372.059 65.8546 373.552 65.8546C374.604 65.8546 375.396 65.3973 375.838 64.6048H375.868V65.6717H377.758V58.1576V58.1423ZM364.912 61.8918H367.274C366.832 63.9341 365.277 64.117 364.82 64.117C363.373 64.117 361.864 63.4007 361.864 60.6267C361.864 58.0204 363.266 56.984 364.775 56.984C366.283 56.984 366.999 58.249 366.999 58.6453H369.118C369.011 57.2431 367.777 55.2312 364.668 55.2312C361.254 55.2312 359.715 57.8375 359.715 60.5962C359.715 64.1628 361.94 65.9003 364.378 65.9003C366.222 65.9003 366.999 64.9858 367.548 64.3609L367.761 65.6412H369.179V60.1695H364.942V61.8765L364.912 61.8918ZM354.778 60.7791H352.66V62.6081H354.778V60.7791ZM345.863 61.8918C345.863 62.852 345.574 64.178 344.05 64.178C342.526 64.178 342.236 62.852 342.236 61.8918C342.236 60.9316 342.526 59.6055 344.05 59.6055C345.574 59.6055 345.863 60.9316 345.863 61.8918ZM347.89 61.8918C347.89 59.1788 346.061 57.929 344.05 57.929C342.038 57.929 340.21 59.1788 340.21 61.8918C340.21 64.6048 342.038 65.8393 344.05 65.8393C346.061 65.8393 347.89 64.5895 347.89 61.8918ZM338.152 56.1H336.171V58.1423H335.15V59.5598H336.171V64.117C336.171 65.0925 336.476 65.7326 338.198 65.7326H338.457C338.762 65.7326 339.082 65.7327 339.387 65.7022V64.2085L338.975 64.239C338.168 64.239 338.152 64.0713 338.152 63.6293V59.5446H339.387V58.1271H338.152V56.0847V56.1ZM330.137 65.6564H332.118V61.7394C332.118 60.9011 332.407 59.9409 333.947 59.9409C334.129 59.9409 334.343 59.9408 334.51 59.9713V57.9595L334.129 57.929C332.926 57.929 332.468 58.6606 332.072 59.4226H332.042V58.1271H330.152V65.6412L330.137 65.6564ZM326.739 61.8918C326.739 62.852 326.464 64.178 324.925 64.178C323.386 64.178 323.112 62.852 323.112 61.8918C323.112 60.9316 323.401 59.6055 324.925 59.6055C326.449 59.6055 326.739 60.9316 326.739 61.8918ZM328.765 61.8918C328.765 59.1788 326.952 57.929 324.925 57.929C322.898 57.929 321.085 59.1788 321.085 61.8918C321.085 64.6048 322.898 65.8393 324.925 65.8393C326.952 65.8393 328.765 64.5895 328.765 61.8918ZM314.746 58.1423H312.856V68.5981H314.837V64.6962H314.868C315.111 65.1077 315.599 65.8546 316.986 65.8546C319.211 65.8546 320.155 63.8732 320.155 61.8156C320.155 59.2093 318.693 57.9442 317.032 57.9442C315.706 57.9442 315.157 58.6301 314.791 59.2245H314.761V58.1423H314.746ZM314.746 62.0747C314.746 60.8706 315.066 59.6665 316.422 59.6665C317.672 59.6665 318.098 60.7792 318.098 61.968C318.098 62.852 317.748 64.239 316.468 64.239C315.188 64.239 314.73 63.1873 314.73 62.0747H314.746ZM309.473 61.907C309.473 62.8672 309.184 64.1932 307.66 64.1932C306.136 64.1932 305.846 62.8672 305.846 61.907C305.846 60.9468 306.136 59.6208 307.66 59.6208C309.184 59.6208 309.473 60.9468 309.473 61.907ZM311.5 61.907C311.5 59.194 309.671 57.9442 307.66 57.9442C305.648 57.9442 303.82 59.194 303.82 61.907C303.82 64.62 305.648 65.8546 307.66 65.8546C309.671 65.8546 311.5 64.6048 311.5 61.907ZM299.035 65.6717H301.016V61.7546C301.016 60.9163 301.305 59.9561 302.844 59.9561C303.027 59.9561 303.24 59.9561 303.408 59.9866V57.9747L303.027 57.9442C301.823 57.9442 301.381 58.6758 300.97 59.4379H300.939V58.1423H299.05V65.6564L299.035 65.6717ZM292.634 61.1602C292.741 60.1695 293.244 59.5751 294.173 59.5751C294.813 59.5751 295.591 59.9408 295.697 61.1602H292.634ZM295.621 63.4617C295.469 63.9951 294.905 64.2847 294.356 64.2847C292.756 64.2847 292.649 63.0196 292.588 62.4557H297.739V62.1052C297.739 58.6758 295.697 57.9595 294.204 57.9595C290.912 57.9595 290.607 60.8553 290.607 61.7546C290.607 64.8486 292.238 65.8698 294.356 65.8698C295.636 65.8698 297.13 65.2754 297.663 63.4769H295.621V63.4617ZM285.167 57.807H285.198L286.463 61.8156H283.872L285.167 57.807ZM283.308 63.5683H287.057L287.712 65.6564H290.013L286.447 55.5208H284.009L280.397 65.6564H282.622L283.323 63.5683H283.308Z" fill="#231F20"/>
<path d="M399.778 123.696H397.889V134.152H399.87V130.25H399.9C400.144 130.662 400.631 131.409 402.018 131.409C404.243 131.409 405.188 129.427 405.188 127.369C405.188 124.763 403.725 123.498 402.064 123.498C400.738 123.498 400.19 124.184 399.824 124.778H399.793V123.696H399.778ZM399.778 127.629C399.778 126.425 400.098 125.22 401.454 125.22C402.719 125.22 403.131 126.333 403.131 127.522C403.131 128.406 402.78 129.793 401.515 129.793C400.251 129.793 399.778 128.741 399.778 127.629ZM394.231 128.513C394.231 129.427 393.347 129.991 392.464 129.991C392.083 129.991 391.549 129.778 391.549 129.092C391.549 128.269 392.159 128.086 392.89 127.964C393.713 127.827 394.033 127.705 394.231 127.552V128.513ZM396.167 125.678C396.167 123.833 394.231 123.498 393.18 123.498C391.641 123.498 390.041 123.818 389.812 126.135H391.717C391.778 125.693 391.945 125.083 392.936 125.083C393.439 125.083 394.231 125.129 394.231 125.967C394.231 126.394 393.85 126.516 393.545 126.562L391.763 126.836C390.513 127.019 389.568 127.766 389.568 129.244C389.568 130.799 390.726 131.439 391.854 131.439C393.195 131.439 393.835 130.814 394.277 130.357C394.323 130.784 394.353 130.89 394.46 131.241H396.593V130.951C396.349 130.86 396.151 130.662 396.151 129.778V125.708L396.167 125.678ZM386.688 128.482C386.688 128.833 386.353 129.793 385.347 129.793C383.854 129.793 383.823 128.162 383.823 127.354C383.823 126.425 384.143 125.205 385.393 125.175C386.307 125.144 386.627 125.891 386.703 126.394H388.715C388.532 124.047 386.581 123.513 385.393 123.513C382.848 123.513 381.796 125.251 381.796 127.674C381.796 129.259 382.452 131.424 385.271 131.424C388.09 131.424 388.639 129.259 388.699 128.482H386.688ZM375.808 126.714C375.914 125.723 376.417 125.129 377.347 125.129C377.987 125.129 378.764 125.495 378.871 126.714H375.808ZM378.794 129.016C378.642 129.549 378.078 129.839 377.53 129.839C375.929 129.839 375.823 128.574 375.762 128.01H380.913V127.659C380.913 124.23 378.855 123.513 377.377 123.513C374.086 123.513 373.781 126.409 373.781 127.309C373.781 130.403 375.411 131.424 377.53 131.424C378.81 131.424 380.318 130.829 380.836 129.016H378.81H378.794ZM372.912 124.397C372.79 122.904 371.571 120.816 368.539 120.816C365.918 120.816 363.876 122.629 363.876 126.165C363.876 129.701 365.811 131.485 368.508 131.485C371.053 131.485 372.485 129.945 372.912 127.735H370.794C370.535 128.97 369.712 129.641 368.554 129.641C366.756 129.641 366.039 128.01 366.039 126.181C366.039 123.315 367.533 122.629 368.554 122.629C370.306 122.629 370.626 123.773 370.794 124.382H372.912V124.397ZM358.938 126.348H356.82V128.193H358.938V126.348ZM351.761 125.998C351.608 123.879 349.856 123.513 348.393 123.513C346.046 123.513 345.36 124.931 345.36 126.028C345.36 128.833 350.023 127.888 350.023 129.153C350.023 129.442 349.78 129.93 348.759 129.93C347.524 129.93 347.113 129.458 347.113 128.833H345.086C345.147 130.845 346.991 131.439 348.698 131.439C349.871 131.439 351.989 131.043 351.989 128.848C351.989 126.074 347.281 126.943 347.281 125.754C347.281 125.434 347.418 125.022 348.5 125.022C349.582 125.022 349.749 125.525 349.825 126.013H351.761V125.998ZM342.16 127.461C342.16 128.421 341.871 129.747 340.347 129.747C338.823 129.747 338.533 128.421 338.533 127.461C338.533 126.501 338.808 125.175 340.347 125.175C341.886 125.175 342.16 126.501 342.16 127.461ZM344.187 127.461C344.187 124.748 342.358 123.498 340.347 123.498C338.335 123.498 336.507 124.748 336.507 127.461C336.507 130.174 338.335 131.424 340.347 131.424C342.358 131.424 344.187 130.189 344.187 127.461ZM335.105 126.013C335.105 124.367 333.962 123.498 332.484 123.498C331.417 123.498 330.564 124.047 330.305 124.672H330.274V121.075H328.293V131.21H330.274V126.897C330.274 125.754 330.96 125.159 331.828 125.159C333.093 125.159 333.108 126.089 333.108 126.638V131.195H335.09V125.998L335.105 126.013ZM326.419 121.075H324.438V131.21H326.419V121.075ZM322.533 123.696H320.552V128.04C320.552 129.381 319.683 129.747 319.028 129.747C318.418 129.747 317.748 129.519 317.748 128.36V123.696H315.767V128.635C315.767 130.555 316.833 131.409 318.327 131.409C319.378 131.409 320.156 130.951 320.613 130.159H320.643V131.21H322.533V123.696ZM310.25 131.21H312.231V127.293C312.231 126.455 312.506 125.495 314.045 125.495C314.228 125.495 314.441 125.495 314.609 125.525V123.513L314.228 123.483C313.024 123.483 312.582 124.215 312.17 124.977H312.14V123.681H310.25V131.195V131.21ZM306.563 128.513C306.563 129.427 305.679 129.991 304.795 129.991C304.414 129.991 303.881 129.778 303.881 129.092C303.881 128.269 304.49 128.086 305.222 127.964C306.044 127.842 306.364 127.705 306.563 127.552V128.513ZM308.498 125.678C308.498 123.833 306.563 123.498 305.511 123.498C303.972 123.498 302.372 123.818 302.143 126.135H304.048C304.109 125.693 304.277 125.083 305.267 125.083C305.77 125.083 306.563 125.129 306.563 125.967C306.563 126.394 306.182 126.516 305.877 126.562L304.094 126.836C302.844 127.019 301.9 127.766 301.9 129.244C301.9 130.799 303.058 131.439 304.185 131.439C305.526 131.439 306.166 130.814 306.623 130.357C306.669 130.784 306.7 130.89 306.806 131.241H308.94V130.951C308.696 130.86 308.498 130.662 308.498 129.778V125.708V125.678ZM300.558 123.696H298.577V128.04C298.577 129.381 297.709 129.747 297.054 129.747C296.444 129.747 295.773 129.519 295.773 128.36V123.696H293.792V128.635C293.792 130.555 294.874 131.409 296.353 131.409C297.404 131.409 298.196 130.951 298.638 130.159H298.669V131.21H300.558V123.696ZM287.712 127.446H290.074C289.632 129.488 288.078 129.671 287.621 129.671C286.188 129.671 284.664 128.955 284.664 126.181C284.664 123.574 286.066 122.538 287.575 122.538C289.084 122.538 289.785 123.803 289.785 124.199H291.903C291.781 122.797 290.562 120.785 287.453 120.785C284.04 120.785 282.5 123.391 282.5 126.15C282.5 129.717 284.725 131.454 287.164 131.454C289.007 131.454 289.785 130.54 290.333 129.915L290.547 131.18H291.964V125.708H287.727V127.415L287.712 127.446Z" fill="#231F20"/>
<path fill-rule="evenodd" clip-rule="evenodd" d="M10.5341 459.285C8.29397 461.587 4.60615 461.632 2.30509 459.407C0.00403881 457.167 -0.0416887 453.478 2.19841 451.177L261.669 183.413V57.3956C261.669 54.1797 264.275 51.5581 267.505 51.5581C270.736 51.5581 273.342 54.1644 273.342 57.3956V185.745H273.327C273.327 187.208 272.778 188.671 271.681 189.799L10.5493 459.285H10.5341ZM267.505 129.9C270.05 129.9 272.108 127.842 272.108 125.297C272.108 122.751 270.05 120.694 267.505 120.694C264.961 120.694 262.903 122.751 262.903 125.297C262.903 127.842 264.961 129.9 267.505 129.9ZM267.491 64.5134C269.457 64.5134 271.057 62.9131 271.057 60.9469C271.057 58.9807 269.457 57.3804 267.491 57.3804C265.525 57.3804 263.925 58.9807 263.925 60.9469C263.925 62.9131 265.525 64.5134 267.491 64.5134Z" fill="white"/>
<path fill-rule="evenodd" clip-rule="evenodd" d="M241.889 57.4464C241.889 51.1212 236.768 46 230.444 46C224.12 46 219 51.1212 219 57.4464C219 63.7717 224.12 68.8928 230.444 68.8928C236.768 68.8928 241.889 63.7717 241.889 57.4464ZM231.74 50.4658H225.355L225.324 50.4353V64.3204H231.176C231.801 64.3204 232.441 64.2746 233.081 64.1679C233.721 64.0613 234.3 63.8631 234.818 63.5583C235.336 63.2687 235.763 62.8572 236.098 62.339C236.433 61.8207 236.601 61.1501 236.601 60.3118C236.601 58.6505 235.671 57.6293 233.797 57.2483V57.2026C234.574 56.9435 235.184 56.5624 235.61 56.0442C236.037 55.5412 236.25 54.8401 236.25 53.9713C236.25 53.3769 236.144 52.8587 235.915 52.4167C235.687 51.9747 235.382 51.6089 234.97 51.3193C234.559 51.045 234.086 50.8316 233.538 50.6792C232.989 50.542 232.395 50.4658 231.74 50.4658ZM230.155 61.7293H229.088V58.4676H230.216C230.536 58.4676 230.856 58.4829 231.176 58.5133C231.496 58.5438 231.785 58.62 232.044 58.7267C232.304 58.8334 232.517 59.0011 232.684 59.2297C232.852 59.4583 232.928 59.7784 232.928 60.1289C232.928 60.4795 232.837 60.7691 232.684 60.9825C232.517 61.1958 232.304 61.3635 232.044 61.4702C231.77 61.5769 231.481 61.6531 231.145 61.6836C230.825 61.7141 230.49 61.7293 230.155 61.7293ZM230.094 55.9527H229.058L229.042 55.9375V53.0721H230.124C230.429 53.0721 230.734 53.0873 231.024 53.1178C231.313 53.1483 231.572 53.2093 231.801 53.3007C232.029 53.3922 232.212 53.5293 232.349 53.7122C232.486 53.9104 232.563 54.1542 232.563 54.4743C232.563 54.7791 232.502 55.0078 232.349 55.2059C232.212 55.3888 232.014 55.5412 231.785 55.6479C231.542 55.7546 231.283 55.8308 230.993 55.8765C230.688 55.9375 230.399 55.9527 230.094 55.9527Z" fill="#231F20"/>
<path d="M325.276 78.4595C324.971 78.5814 324.514 78.6881 323.905 78.7796C323.554 78.8253 323.31 78.8862 323.173 78.9472C323.036 79.0082 322.914 79.0996 322.838 79.2215C322.762 79.3435 322.716 79.4806 322.716 79.6178C322.716 79.8464 322.807 80.0294 322.975 80.1818C323.143 80.3342 323.402 80.4104 323.722 80.4104C324.042 80.4104 324.331 80.3342 324.59 80.197C324.849 80.0598 325.032 79.8617 325.154 79.6178C325.246 79.4349 325.291 79.1453 325.291 78.7796V78.4747L325.276 78.4595ZM325.352 80.3189C325.032 80.578 324.743 80.7762 324.453 80.8829C324.164 80.9896 323.859 81.0505 323.524 81.0505C322.975 81.0505 322.564 80.9134 322.259 80.6543C321.969 80.3952 321.817 80.0446 321.817 79.6331C321.817 79.3892 321.878 79.1758 321.984 78.9624C322.091 78.7643 322.244 78.5966 322.426 78.4747C322.609 78.3528 322.807 78.2613 323.036 78.2004C323.204 78.1546 323.447 78.1089 323.783 78.0784C324.468 78.0022 324.971 77.8955 325.291 77.7888C325.291 77.6669 325.291 77.6059 325.291 77.5755C325.291 77.2401 325.215 76.9963 325.048 76.8591C324.834 76.6762 324.514 76.5695 324.087 76.5695C323.691 76.5695 323.402 76.6457 323.204 76.7829C323.021 76.9201 322.868 77.1639 322.777 77.5145L321.954 77.3926C322.03 77.042 322.152 76.7524 322.32 76.539C322.487 76.3257 322.746 76.158 323.066 76.0361C323.386 75.9141 323.767 75.8684 324.194 75.8684C324.621 75.8684 324.971 75.9141 325.23 76.0208C325.489 76.1275 325.688 76.2494 325.809 76.4018C325.931 76.5543 326.023 76.7524 326.068 76.981C326.099 77.1182 326.114 77.3773 326.114 77.7583V78.871C326.114 79.6483 326.129 80.1513 326.16 80.3494C326.19 80.5628 326.267 80.761 326.358 80.9439H325.474C325.383 80.761 325.337 80.5628 325.307 80.3189H325.352Z" fill="#231F20"/>
<path d="M328.232 74.0852H327.394V80.9439H328.232V74.0852Z" fill="#231F20"/>
<path d="M329.543 80.9439V75.9751H330.305V76.6762C330.457 76.4323 330.671 76.2342 330.93 76.097C331.189 75.9446 331.478 75.8684 331.814 75.8684C332.179 75.8684 332.484 75.9446 332.713 76.097C332.941 76.2494 333.109 76.4628 333.216 76.7372C333.612 76.158 334.13 75.8684 334.755 75.8684C335.242 75.8684 335.623 76.0056 335.898 76.2799C336.157 76.5543 336.294 76.9658 336.294 77.545V80.9591H335.456V77.8346C335.456 77.4992 335.425 77.2554 335.379 77.103C335.318 76.9506 335.227 76.8439 335.075 76.7524C334.938 76.661 334.755 76.6152 334.572 76.6152C334.221 76.6152 333.932 76.7372 333.703 76.9658C333.475 77.1944 333.353 77.5755 333.353 78.0784V80.9591H332.515V77.7279C332.515 77.3621 332.438 77.0725 332.301 76.8896C332.164 76.7067 331.936 76.6152 331.631 76.6152C331.402 76.6152 331.174 76.6762 330.975 76.7981C330.777 76.9201 330.625 77.103 330.534 77.3468C330.442 77.5907 330.396 77.926 330.396 78.3833V80.9591H329.558L329.543 80.9439Z" fill="#231F20"/>
<path d="M338.153 77.9869H340.926C340.896 77.5754 340.789 77.2553 340.606 77.0419C340.347 76.7218 339.996 76.5542 339.57 76.5542C339.189 76.5542 338.854 76.6761 338.594 76.9352C338.335 77.1943 338.183 77.5449 338.153 77.9717M340.911 79.3282L341.779 79.4501C341.642 79.953 341.383 80.3493 341.017 80.6237C340.652 80.898 340.179 81.0504 339.6 81.0504C338.869 81.0504 338.305 80.8218 337.878 80.3798C337.452 79.9378 337.238 79.3129 337.238 78.5051C337.238 77.6973 337.452 77.0267 337.878 76.5694C338.305 76.1122 338.869 75.8835 339.555 75.8835C340.24 75.8835 340.758 76.1122 341.17 76.5542C341.597 77.0114 341.795 77.6363 341.795 78.4594C341.795 78.5051 341.795 78.5813 341.795 78.688H338.092C338.122 79.2367 338.274 79.6482 338.549 79.9378C338.823 80.2274 339.174 80.3646 339.585 80.3646C339.89 80.3646 340.149 80.2884 340.377 80.1207C340.591 79.953 340.774 79.6939 340.896 79.3434L340.911 79.3282Z" fill="#231F20"/>
<path d="M344.964 80.9439V75.9751H345.726V76.7372C345.924 76.3866 346.092 76.158 346.26 76.0361C346.427 75.9294 346.61 75.8684 346.808 75.8684C347.098 75.8684 347.387 75.9599 347.677 76.1275L347.372 76.9048C347.174 76.7829 346.961 76.7372 346.763 76.7372C346.58 76.7372 346.412 76.7981 346.275 76.9048C346.122 77.0115 346.031 77.1639 345.97 77.3621C345.879 77.6669 345.833 77.987 345.833 78.3375V80.9286H344.995L344.964 80.9439Z" fill="#231F20"/>
<path d="M351.334 78.4595C351.029 78.5814 350.572 78.6881 349.963 78.7796C349.612 78.8253 349.368 78.8862 349.231 78.9472C349.094 79.0082 348.972 79.0996 348.896 79.2215C348.82 79.3435 348.774 79.4806 348.774 79.6178C348.774 79.8464 348.866 80.0294 349.033 80.1818C349.201 80.3342 349.46 80.4104 349.78 80.4104C350.1 80.4104 350.389 80.3342 350.648 80.197C350.908 80.0598 351.09 79.8617 351.212 79.6178C351.304 79.4349 351.349 79.1453 351.349 78.7796V78.4747L351.334 78.4595ZM351.41 80.3189C351.09 80.578 350.801 80.7762 350.511 80.8829C350.222 80.9896 349.917 81.0505 349.582 81.0505C349.033 81.0505 348.622 80.9134 348.317 80.6543C348.027 80.3952 347.875 80.0446 347.875 79.6331C347.875 79.3892 347.936 79.1758 348.043 78.9624C348.149 78.7643 348.302 78.5966 348.485 78.4747C348.667 78.3528 348.866 78.2613 349.094 78.2004C349.262 78.1546 349.506 78.1089 349.841 78.0784C350.527 78.0022 351.029 77.8955 351.349 77.7888C351.349 77.6669 351.349 77.6059 351.349 77.5755C351.349 77.2401 351.273 76.9963 351.106 76.8591C350.892 76.6762 350.572 76.5695 350.146 76.5695C349.749 76.5695 349.46 76.6457 349.262 76.7829C349.079 76.9201 348.926 77.1639 348.835 77.5145L348.012 77.3926C348.088 77.042 348.21 76.7524 348.378 76.539C348.546 76.3257 348.805 76.158 349.125 76.0361C349.445 75.9141 349.826 75.8684 350.252 75.8684C350.679 75.8684 351.029 75.9141 351.288 76.0208C351.548 76.1275 351.746 76.2494 351.868 76.4018C351.989 76.5543 352.081 76.7524 352.127 76.981C352.157 77.1182 352.172 77.3773 352.172 77.7583V78.871C352.172 79.6483 352.188 80.1513 352.218 80.3494C352.248 80.5628 352.325 80.761 352.416 80.9439H351.532C351.441 80.761 351.395 80.5628 351.365 80.3189H351.41Z" fill="#231F20"/>
<path d="M316.681 90.8356H318.388C318.677 90.8356 318.891 90.8356 319.012 90.8051C319.226 90.7746 319.393 90.7136 319.531 90.6222C319.668 90.5307 319.79 90.4088 319.881 90.2412C319.973 90.0735 320.018 89.8754 320.018 89.662C320.018 89.4029 319.957 89.1895 319.82 88.9914C319.683 88.8085 319.5 88.6713 319.272 88.5951C319.043 88.5189 318.708 88.4731 318.266 88.4731H316.681V90.8356ZM316.681 87.6653H318.159C318.555 87.6653 318.845 87.6349 319.028 87.5891C319.256 87.5129 319.439 87.4062 319.546 87.2386C319.668 87.0861 319.729 86.8728 319.729 86.6441C319.729 86.4155 319.668 86.2174 319.561 86.0497C319.454 85.8821 319.302 85.7601 319.089 85.6992C318.891 85.6382 318.54 85.6077 318.052 85.6077H316.681V87.6806V87.6653ZM315.767 91.6434V84.7847H318.342C318.86 84.7847 319.287 84.8609 319.607 84.998C319.927 85.1352 320.171 85.3486 320.353 85.6382C320.536 85.9278 320.628 86.2326 320.628 86.5375C320.628 86.8271 320.552 87.1014 320.384 87.3605C320.232 87.6196 319.988 87.833 319.668 87.9854C320.079 88.1073 320.399 88.3207 320.628 88.6103C320.856 88.8999 320.963 89.2504 320.963 89.6467C320.963 89.9668 320.902 90.2717 320.765 90.546C320.628 90.8203 320.46 91.0337 320.262 91.1861C320.064 91.3386 319.805 91.4453 319.515 91.5215C319.211 91.5977 318.845 91.6434 318.403 91.6434H315.782H315.767Z" fill="#231F20"/>
<path d="M325.276 89.1438C324.971 89.2657 324.514 89.3724 323.905 89.4639C323.554 89.5096 323.31 89.5706 323.173 89.6315C323.036 89.6925 322.914 89.7839 322.838 89.9059C322.762 90.0278 322.716 90.165 322.716 90.3022C322.716 90.5308 322.807 90.7137 322.975 90.8661C323.143 91.0185 323.402 91.0947 323.722 91.0947C324.042 91.0947 324.331 91.0185 324.59 90.8813C324.849 90.7442 325.032 90.546 325.154 90.3022C325.246 90.1193 325.291 89.8297 325.291 89.4639V89.1591L325.276 89.1438ZM325.352 91.0033C325.032 91.2624 324.743 91.4605 324.453 91.5672C324.164 91.6739 323.859 91.7349 323.524 91.7349C322.975 91.7349 322.564 91.5977 322.259 91.3386C321.969 91.0795 321.817 90.7289 321.817 90.3174C321.817 90.0735 321.878 89.8602 321.984 89.6468C322.091 89.4486 322.244 89.281 322.426 89.1591C322.609 89.0371 322.807 88.9457 323.036 88.8847C323.204 88.839 323.447 88.7932 323.783 88.7628C324.468 88.6865 324.971 88.5799 325.291 88.4732C325.291 88.3513 325.291 88.2903 325.291 88.2598C325.291 87.9245 325.215 87.6806 325.048 87.5434C324.834 87.3606 324.514 87.2539 324.087 87.2539C323.691 87.2539 323.402 87.3301 323.204 87.4672C323.021 87.6044 322.868 87.8483 322.777 88.1988L321.954 88.0769C322.03 87.7263 322.152 87.4367 322.32 87.2234C322.487 87.01 322.746 86.8423 323.066 86.7204C323.386 86.5985 323.767 86.5527 324.194 86.5527C324.621 86.5527 324.971 86.5985 325.23 86.7052C325.489 86.8119 325.688 86.9338 325.809 87.0862C325.931 87.2386 326.023 87.4367 326.068 87.6654C326.099 87.8025 326.114 88.0617 326.114 88.4427V89.5553C326.114 90.3326 326.129 90.8356 326.16 91.0338C326.19 91.2471 326.267 91.4453 326.358 91.6282H325.474C325.383 91.4453 325.337 91.2471 325.307 91.0033H325.352Z" fill="#231F20"/>
<path d="M327.409 91.6433V86.6745H328.171V87.4366C328.369 87.0861 328.537 86.8575 328.704 86.7355C328.872 86.6288 329.055 86.5679 329.253 86.5679C329.543 86.5679 329.832 86.6593 330.122 86.827L329.817 87.6043C329.619 87.4824 329.405 87.4366 329.207 87.4366C329.024 87.4366 328.857 87.4976 328.72 87.6043C328.567 87.711 328.476 87.8634 328.415 88.0615C328.323 88.3664 328.278 88.6864 328.278 89.037V91.6281H327.44L327.409 91.6433Z" fill="#231F20"/>
<path d="M330.594 91.6433V86.6745H331.356V87.4366C331.554 87.0861 331.722 86.8575 331.89 86.7355C332.057 86.6288 332.24 86.5679 332.438 86.5679C332.728 86.5679 333.017 86.6593 333.307 86.827L333.002 87.6043C332.804 87.4824 332.591 87.4366 332.392 87.4366C332.21 87.4366 332.042 87.4976 331.905 87.6043C331.752 87.711 331.661 87.8634 331.6 88.0615C331.509 88.3664 331.463 88.6864 331.463 89.037V91.6281H330.625L330.594 91.6433Z" fill="#231F20"/>
<path d="M336.979 89.1438C336.674 89.2657 336.217 89.3724 335.608 89.4639C335.257 89.5096 335.013 89.5706 334.876 89.6315C334.739 89.6925 334.617 89.7839 334.541 89.9059C334.465 90.0278 334.419 90.165 334.419 90.3022C334.419 90.5308 334.511 90.7137 334.678 90.8661C334.846 91.0185 335.105 91.0947 335.425 91.0947C335.745 91.0947 336.034 91.0185 336.293 90.8813C336.553 90.7442 336.735 90.546 336.857 90.3022C336.949 90.1193 336.994 89.8297 336.994 89.4639V89.1591L336.979 89.1438ZM337.055 91.0033C336.735 91.2624 336.446 91.4605 336.156 91.5672C335.867 91.6739 335.562 91.7349 335.227 91.7349C334.678 91.7349 334.267 91.5977 333.962 91.3386C333.672 91.0795 333.52 90.7289 333.52 90.3174C333.52 90.0735 333.581 89.8602 333.688 89.6468C333.794 89.4486 333.947 89.281 334.13 89.1591C334.312 89.0371 334.511 88.9457 334.739 88.8847C334.907 88.839 335.151 88.7932 335.486 88.7628C336.172 88.6865 336.674 88.5799 336.994 88.4732C336.994 88.3513 336.994 88.2903 336.994 88.2598C336.994 87.9245 336.918 87.6806 336.751 87.5434C336.537 87.3606 336.217 87.2539 335.791 87.2539C335.394 87.2539 335.105 87.3301 334.907 87.4672C334.724 87.6044 334.572 87.8483 334.48 88.1988L333.657 88.0769C333.733 87.7263 333.855 87.4367 334.023 87.2234C334.19 87.01 334.45 86.8423 334.77 86.7204C335.09 86.5985 335.471 86.5527 335.897 86.5527C336.324 86.5527 336.674 86.5985 336.933 86.7052C337.193 86.8119 337.391 86.9338 337.513 87.0862C337.634 87.2386 337.726 87.4367 337.772 87.6654C337.802 87.8025 337.817 88.0617 337.817 88.4427V89.5553C337.817 90.3326 337.833 90.8356 337.863 91.0338C337.894 91.2471 337.97 91.4453 338.061 91.6282H337.177C337.086 91.4453 337.04 91.2471 337.01 91.0033H337.055Z" fill="#231F20"/>
<path d="M350.877 91.6434V90.9118C350.496 91.4757 349.963 91.7501 349.308 91.7501C349.018 91.7501 348.744 91.6891 348.485 91.5824C348.226 91.4757 348.043 91.3233 347.921 91.1557C347.799 90.988 347.708 90.7746 347.662 90.5307C347.631 90.3631 347.616 90.104 347.616 89.7382V86.6594H348.454V89.4029C348.454 89.8449 348.47 90.1345 348.5 90.2869C348.546 90.5155 348.668 90.6832 348.835 90.8051C349.003 90.927 349.216 90.988 349.475 90.988C349.734 90.988 349.963 90.927 350.176 90.7898C350.39 90.6527 350.557 90.485 350.649 90.2564C350.74 90.0278 350.786 89.7077 350.786 89.2809V86.6289H351.624V91.5976H350.862L350.877 91.6434Z" fill="#231F20"/>
<path d="M352.949 91.6433V86.6745H353.711V87.3757C354.077 86.827 354.595 86.5679 355.296 86.5679C355.601 86.5679 355.875 86.6288 356.119 86.7355C356.363 86.8422 356.561 86.9794 356.683 87.1623C356.805 87.3299 356.896 87.5433 356.942 87.7872C356.972 87.9396 356.987 88.214 356.987 88.6102V91.6585H356.149V88.6407C356.149 88.2902 356.119 88.0463 356.058 87.8786C355.997 87.711 355.875 87.5738 355.707 87.4671C355.54 87.3604 355.342 87.3147 355.128 87.3147C354.778 87.3147 354.458 87.4214 354.199 87.65C353.94 87.8786 353.803 88.3054 353.803 88.9456V91.6585H352.964L352.949 91.6433Z" fill="#231F20"/>
<path d="M358.816 89.159C358.816 89.7992 358.954 90.2716 359.213 90.5765C359.487 90.8965 359.792 91.049 360.158 91.049C360.523 91.049 360.843 90.8966 361.102 90.5917C361.361 90.2869 361.483 89.8296 361.483 89.22C361.483 88.5493 361.346 88.0464 361.087 87.7263C360.828 87.4062 360.508 87.2538 360.112 87.2538C359.716 87.2538 359.426 87.4062 359.167 87.7111C358.923 88.0159 358.786 88.5036 358.786 89.159M361.453 91.6434V91.0185C361.133 91.5062 360.676 91.7501 360.066 91.7501C359.67 91.7501 359.304 91.6434 358.984 91.43C358.649 91.2166 358.39 90.9118 358.207 90.5155C358.024 90.1192 357.933 89.6772 357.933 89.1742C357.933 88.6713 358.009 88.2293 358.176 87.833C358.344 87.4367 358.588 87.1166 358.923 86.9032C359.258 86.6899 359.624 86.5832 360.036 86.5832C360.34 86.5832 360.599 86.6441 360.828 86.7661C361.057 86.888 361.255 87.0557 361.392 87.2538V84.7847H362.23V91.6434H361.438H361.453Z" fill="#231F20"/>
<path fill-rule="evenodd" clip-rule="evenodd" d="M290.836 71.418C297.191 71.418 302.342 76.5696 302.342 82.9254C302.342 89.2811 297.191 94.4175 290.836 94.4175C284.482 94.4175 279.346 89.2658 279.346 82.9254C279.346 76.5849 284.497 71.418 290.836 71.418Z" fill="#008061"/>
<path fill-rule="evenodd" clip-rule="evenodd" d="M292.985 81.5382C294.539 81.5382 297.374 80.2122 299.111 79.9226C299.522 79.8617 299.919 79.8159 300.345 79.8159C300.543 79.8159 300.635 79.8921 300.802 79.9379C300.97 79.9836 301.062 79.9379 301.275 80.0445C301.564 80.1665 301.534 80.2274 301.366 80.4561L301.29 80.5475L300.985 80.8219L300.879 80.8981L300.543 81.1419L300.056 81.4163L299.797 81.5382C299.629 81.6297 299.446 81.6906 299.279 81.7668C298.715 81.9955 298.136 82.1326 297.557 82.3308L296.414 82.6966C296.261 82.7576 295.667 82.91 295.56 82.9862L294.021 83.733L293.808 83.8854L293.595 84.0531C293.214 84.4189 292.848 84.6932 292.482 85.0285L292.436 85.0743L291.644 85.7144C291.187 86.0802 290.714 86.446 290.227 86.7966L289.587 87.2386L289.556 87.1776C289.343 87.2233 289.465 87.2691 288.931 87.3453C288.657 87.391 288.749 87.4215 288.52 87.2538L288.398 87.1624C288.566 87.0709 288.627 87.1014 288.81 87.1167L289.008 87.1471L289.495 86.7051C289.754 86.446 290.105 85.9888 290.318 85.7144C290.532 85.4401 290.852 85.059 290.989 84.7694L290.684 84.8152C288.596 85.1048 286.615 85.6382 284.436 85.8668L284.131 85.8973L283.842 85.9278L283.537 85.9583L283.171 86.004C282.973 86.1717 282.485 86.5527 282.303 86.7051C281.967 87.01 281.541 87.0404 281.388 87.1167L281.617 86.6899L281.861 86.2784L282.013 85.9888H281.876L281.586 86.0193H281.419L281.343 85.8059L281.891 85.5315L281.861 85.4858L281.525 85.1657L281.312 84.9371L280.733 84.3427H280.794L280.855 84.3122L281.007 84.2817L280.443 83.6873L280.398 83.6416L280.2 83.4282L280.337 83.3825L281.145 83.1538L281.282 83.1843H281.404C281.525 83.2148 282.394 83.6263 282.638 83.7178L282.76 83.7635L283.247 83.9769C283.461 84.0683 283.781 84.2512 283.979 84.297C285.289 84.678 288.688 83.1233 290.516 82.7118L290.638 82.6814V82.6509C290.638 82.6509 289.282 81.2029 288.977 80.8828C288.703 80.578 288.49 80.3494 287.773 79.4654L287.651 79.3434L287.514 79.2063L287.408 79.0691L287.133 78.6728L287.072 78.5814L287.377 78.5356L287.469 78.5814L287.56 78.6271L288.017 78.871L288.109 78.9167H288.291L288.337 78.9624L288.459 78.9929C288.764 79.1606 289.206 79.4501 289.526 79.633L290.074 79.9531L290.44 80.1665L290.973 80.4713L291.065 80.5171C291.339 80.6847 291.629 80.8219 291.888 80.9895L292.452 81.2944L292.924 81.5382L293.031 81.584L292.985 81.5382Z" fill="#231F20"/>
<path fill-rule="evenodd" clip-rule="evenodd" d="M306.228 79.5416V85.3029L312.018 85.2877L312.003 83.7788H308.833L312.536 80.0751L311.454 78.9929L307.751 82.6966V79.5416H306.228Z" fill="#231F20"/>
<path d="M316.727 77.3469H318.494C319.089 77.3469 319.5 77.2402 319.744 77.0268C319.988 76.8134 320.11 76.5086 320.11 76.0971C320.11 75.8075 320.034 75.5636 319.896 75.3655C319.744 75.1674 319.561 75.0302 319.317 74.954C319.165 74.9082 318.875 74.893 318.464 74.893H316.712V77.3469H316.727ZM315.812 80.9439V74.0852H318.403C318.86 74.0852 319.211 74.1004 319.439 74.1462C319.775 74.2071 320.064 74.3138 320.293 74.4662C320.521 74.6187 320.704 74.8473 320.841 75.1216C320.978 75.4112 321.055 75.716 321.055 76.0514C321.055 76.6305 320.872 77.1183 320.491 77.5298C320.125 77.9261 319.455 78.1394 318.479 78.1394H316.727V80.9287H315.812V80.9439Z" fill="#231F20"/>
<path d="M342.846 80.9439V75.9751H343.684V80.9439H342.846ZM342.846 75.0454V74.0852H343.684V75.0454H342.846Z" fill="#231F20"/>
<path d="M353.147 79.4653L353.986 79.3281C354.031 79.6634 354.168 79.9225 354.382 80.0902C354.595 80.2731 354.9 80.3493 355.281 80.3493C355.662 80.3493 355.951 80.2731 356.149 80.1054C356.332 79.953 356.424 79.7701 356.424 79.5567C356.424 79.3738 356.332 79.2214 356.165 79.1147C356.043 79.0385 355.753 78.9471 355.296 78.8252C354.687 78.6727 354.26 78.5355 354.016 78.4289C353.772 78.3069 353.605 78.1545 353.483 77.9564C353.361 77.7582 353.3 77.5296 353.3 77.2857C353.3 77.0571 353.345 76.859 353.452 76.6761C353.559 76.4932 353.696 76.3255 353.864 76.2036C354.001 76.1122 354.168 76.0207 354.397 75.9597C354.626 75.8988 354.869 75.853 355.128 75.853C355.525 75.853 355.86 75.914 356.149 76.0207C356.439 76.1274 356.668 76.2798 356.805 76.4779C356.942 76.6761 357.033 76.9352 357.094 77.2553L356.271 77.3772C356.241 77.1181 356.119 76.9199 355.951 76.7675C355.768 76.6151 355.525 76.5541 355.189 76.5541C354.808 76.5541 354.534 76.6151 354.367 76.7523C354.199 76.8742 354.123 77.0266 354.123 77.1943C354.123 77.301 354.153 77.4077 354.229 77.4839C354.29 77.5753 354.412 77.6515 354.549 77.7125C354.641 77.743 354.885 77.8192 355.296 77.9259C355.89 78.0783 356.302 78.2155 356.546 78.3222C356.789 78.4289 356.972 78.566 357.094 78.7642C357.231 78.9623 357.292 79.1909 357.292 79.4805C357.292 79.7701 357.216 80.0292 357.049 80.2731C356.881 80.517 356.652 80.7151 356.348 80.8523C356.043 80.9895 355.692 81.0504 355.296 81.0504C354.656 81.0504 354.153 80.9132 353.818 80.6541C353.483 80.3798 353.269 79.9835 353.163 79.4653" fill="#231F20"/>
<path d="M360.538 78.0479H357.933V78.8861H360.538V78.0479Z" fill="#231F20"/>
<path d="M341.932 91.6434V84.7847H346.549V85.5925H342.846V87.7263H346.061V88.5341H342.846V91.6434H341.932Z" fill="#231F20"/>
<path d="M366.771 89.1438C366.466 89.2657 366.009 89.3724 365.4 89.4639C365.049 89.5096 364.805 89.5706 364.668 89.6315C364.531 89.6925 364.409 89.7839 364.333 89.9059C364.257 90.0278 364.211 90.165 364.211 90.3022C364.211 90.5308 364.303 90.7137 364.47 90.8661C364.638 91.0185 364.897 91.0947 365.217 91.0947C365.537 91.0947 365.826 91.0185 366.085 90.8813C366.345 90.7442 366.527 90.546 366.649 90.3022C366.741 90.1193 366.786 89.8297 366.786 89.4639V89.1591L366.771 89.1438ZM366.847 91.0033C366.527 91.2624 366.238 91.4605 365.948 91.5672C365.659 91.6739 365.354 91.7349 365.019 91.7349C364.47 91.7349 364.059 91.5977 363.754 91.3386C363.464 91.0795 363.312 90.7289 363.312 90.3174C363.312 90.0735 363.373 89.8602 363.48 89.6468C363.586 89.4486 363.739 89.281 363.922 89.1591C364.104 89.0371 364.303 88.9457 364.531 88.8847C364.699 88.839 364.943 88.7932 365.278 88.7628C365.964 88.6865 366.466 88.5799 366.786 88.4732C366.786 88.3513 366.786 88.2903 366.786 88.2598C366.786 87.9245 366.71 87.6806 366.543 87.5434C366.329 87.3606 366.009 87.2539 365.583 87.2539C365.186 87.2539 364.897 87.3301 364.699 87.4672C364.516 87.6044 364.363 87.8483 364.272 88.1988L363.449 88.0769C363.525 87.7263 363.647 87.4367 363.815 87.2234C363.983 87.01 364.242 86.8423 364.562 86.7204C364.882 86.5985 365.263 86.5527 365.689 86.5527C366.116 86.5527 366.466 86.5985 366.725 86.7052C366.985 86.8119 367.183 86.9338 367.305 87.0862C367.426 87.2386 367.518 87.4367 367.564 87.6654C367.594 87.8025 367.609 88.0617 367.609 88.4427V89.5553C367.609 90.3326 367.625 90.8356 367.655 91.0338C367.686 91.2471 367.762 91.4453 367.853 91.6282H366.969C366.878 91.4453 366.832 91.2471 366.802 91.0033H366.847Z" fill="#231F20"/>
<path d="M255.995 10.7554V3.2041H258.251V10.7188C258.251 11.6367 258.092 12.3643 257.775 12.9014C257.238 13.8096 256.269 14.2637 254.867 14.2637C253.466 14.2637 252.526 13.8975 252.047 13.165C251.569 12.4277 251.33 11.4243 251.33 10.1548V9.90576H253.461V10.1548C253.48 10.9897 253.571 11.5781 253.732 11.9199C253.898 12.2568 254.25 12.4253 254.787 12.4253C255.319 12.4253 255.67 12.2397 255.841 11.8687C255.944 11.6489 255.995 11.2778 255.995 10.7554ZM260.624 6.88086C261.176 6.17773 262.123 5.82617 263.466 5.82617C264.34 5.82617 265.116 5.99951 265.795 6.34619C266.474 6.69287 266.813 7.34717 266.813 8.30908V11.9712C266.813 12.2251 266.818 12.5327 266.828 12.894C266.842 13.1675 266.884 13.353 266.952 13.4507C267.021 13.5483 267.123 13.6289 267.26 13.6924V14H264.989C264.926 13.8389 264.882 13.6875 264.857 13.5459C264.833 13.4043 264.813 13.2432 264.799 13.0625C264.511 13.375 264.179 13.6411 263.803 13.8608C263.354 14.1196 262.846 14.249 262.279 14.249C261.557 14.249 260.958 14.0439 260.485 13.6338C260.016 13.2188 259.782 12.6328 259.782 11.876C259.782 10.8945 260.16 10.1841 260.917 9.74463C261.332 9.50537 261.942 9.33447 262.748 9.23193L263.458 9.14404C263.844 9.09521 264.12 9.03418 264.286 8.96094C264.584 8.83398 264.733 8.63623 264.733 8.36768C264.733 8.04053 264.618 7.81592 264.389 7.69385C264.164 7.56689 263.832 7.50342 263.393 7.50342C262.899 7.50342 262.55 7.62549 262.345 7.86963C262.199 8.05029 262.101 8.29443 262.052 8.60205H260.038C260.082 7.90381 260.277 7.33008 260.624 6.88086ZM262.177 12.4912C262.372 12.6523 262.611 12.7329 262.895 12.7329C263.344 12.7329 263.756 12.6011 264.132 12.3374C264.513 12.0737 264.711 11.5928 264.726 10.8945V10.1182C264.594 10.2012 264.459 10.2695 264.323 10.3232C264.191 10.3721 264.008 10.4185 263.773 10.4624L263.305 10.5503C262.865 10.6284 262.55 10.7236 262.36 10.8359C262.038 11.0264 261.876 11.3218 261.876 11.7222C261.876 12.0786 261.977 12.335 262.177 12.4912ZM275.939 3.21875V14H273.91V12.894C273.612 13.3677 273.273 13.7119 272.892 13.9268C272.511 14.1416 272.038 14.249 271.471 14.249C270.539 14.249 269.752 13.873 269.113 13.1211C268.478 12.3643 268.161 11.395 268.161 10.2134C268.161 8.85107 268.473 7.7793 269.098 6.99805C269.728 6.2168 270.568 5.82617 271.618 5.82617C272.101 5.82617 272.531 5.93359 272.907 6.14844C273.283 6.3584 273.588 6.65137 273.822 7.02734V3.21875H275.939ZM270.314 10.0596C270.314 10.7969 270.46 11.3853 270.753 11.8247C271.042 12.269 271.481 12.4912 272.072 12.4912C272.663 12.4912 273.112 12.2715 273.419 11.832C273.727 11.3926 273.881 10.8237 273.881 10.1255C273.881 9.14893 273.634 8.45068 273.141 8.03076C272.838 7.77686 272.487 7.6499 272.086 7.6499C271.476 7.6499 271.027 7.88184 270.739 8.3457C270.456 8.80469 270.314 9.37598 270.314 10.0596ZM284.677 11.6562C284.623 12.1299 284.376 12.6108 283.937 13.0991C283.253 13.8755 282.296 14.2637 281.066 14.2637C280.05 14.2637 279.154 13.9365 278.378 13.2822C277.602 12.6279 277.213 11.5635 277.213 10.0889C277.213 8.70703 277.562 7.64746 278.261 6.91016C278.964 6.17285 279.875 5.8042 280.993 5.8042C281.657 5.8042 282.255 5.92871 282.787 6.17773C283.319 6.42676 283.759 6.81982 284.105 7.35693C284.418 7.83057 284.621 8.37988 284.713 9.00488C284.767 9.37109 284.789 9.89844 284.779 10.5869H279.315C279.345 11.3877 279.596 11.9492 280.07 12.2715C280.358 12.4717 280.705 12.5718 281.11 12.5718C281.54 12.5718 281.889 12.4497 282.157 12.2056C282.304 12.0737 282.433 11.8906 282.545 11.6562H284.677ZM282.611 9.20996C282.577 8.6582 282.409 8.24072 282.106 7.95752C281.808 7.66943 281.437 7.52539 280.993 7.52539C280.509 7.52539 280.133 7.67676 279.865 7.97949C279.601 8.28223 279.435 8.69238 279.367 9.20996H282.611Z" fill="black"/>
</svg>
