<svg width="866" height="923" viewBox="0 0 866 923" fill="none" xmlns="http://www.w3.org/2000/svg">
<path d="M475.912 274.474V254.52H495.862V274.474H475.912Z" stroke="white" stroke-width="3"/>
<path d="M489.128 264.469C489.514 264.469 489.85 264.48 490.112 264.502C490.374 264.524 490.648 264.59 490.885 264.666C491.122 264.764 491.308 264.895 491.446 265.092C491.583 265.299 491.67 265.561 491.67 265.9C491.67 266.347 491.495 266.707 491.171 266.98C490.822 267.275 490.399 267.406 489.888 267.406C489.277 267.406 488.816 267.231 488.492 266.871C488.168 266.522 487.981 266.074 487.956 265.507H485.838C485.838 266.609 486.212 267.461 486.947 268.072C487.682 268.694 488.667 269 489.913 269C490.461 269 490.984 268.935 491.47 268.782C491.956 268.64 492.392 268.443 492.791 268.159C493.165 267.897 493.464 267.57 493.688 267.166C493.888 266.773 494 266.325 494 265.834C494 265.299 493.826 264.819 493.477 264.415C493.115 264.022 492.642 263.771 492.056 263.651V263.629C492.542 263.509 492.941 263.269 493.202 262.919C493.464 262.559 493.589 262.155 493.589 261.664C493.589 261.249 493.477 260.878 493.277 260.539C493.078 260.212 492.791 259.939 492.43 259.699C492.069 259.469 491.657 259.295 491.234 259.175C490.797 259.055 490.361 259 489.9 259C488.791 259 487.882 259.306 487.209 259.917C486.523 260.539 486.162 261.336 486.112 262.319H488.231C488.231 261.817 488.393 261.391 488.679 261.074C488.978 260.758 489.389 260.605 489.913 260.605C490.336 260.605 490.71 260.714 491.009 260.943C491.308 261.172 491.47 261.489 491.47 261.882C491.47 262.111 491.408 262.308 491.296 262.461C491.184 262.624 491.034 262.745 490.847 262.832C490.66 262.93 490.449 262.985 490.237 263.028C490 263.072 489.763 263.094 489.514 263.094H489.315L489.14 263.083V264.459L489.128 264.469ZM482.984 259.207H481.215C481.103 259.884 480.779 260.365 480.193 260.659C479.607 260.965 478.897 261.118 478 261.118V262.592H480.754V268.825H482.984V259.207Z" fill="#231F20"/>
<path d="M646.946 291.444C646.794 289.325 645.041 288.959 643.563 288.959C641.216 288.959 640.531 290.377 640.531 291.474C640.531 294.279 645.194 293.334 645.194 294.599C645.194 294.873 644.95 295.376 643.944 295.376C642.694 295.376 642.298 294.904 642.298 294.279H640.271C640.332 296.291 642.176 296.885 643.883 296.885C645.056 296.885 647.175 296.489 647.175 294.309C647.175 291.535 642.466 292.404 642.466 291.215C642.466 290.895 642.603 290.484 643.685 290.484C644.767 290.484 644.919 290.987 645.011 291.474H646.946V291.444ZM637.346 292.907C637.346 293.867 637.056 295.193 635.532 295.193C634.008 295.193 633.719 293.867 633.719 292.907C633.719 291.947 634.008 290.621 635.532 290.621C637.056 290.621 637.346 291.947 637.346 292.907ZM639.388 292.907C639.388 290.194 637.559 288.944 635.547 288.944C633.536 288.944 631.707 290.194 631.707 292.907C631.707 295.62 633.521 296.855 635.547 296.855C637.574 296.855 639.388 295.605 639.388 292.907ZM630.305 291.459C630.305 289.813 629.162 288.944 627.684 288.944C626.618 288.944 625.764 289.493 625.505 290.118H625.475V286.521H623.494V296.656H625.475V292.343C625.475 291.2 626.145 290.606 627.029 290.606C628.294 290.606 628.309 291.535 628.309 292.084V296.641H630.29V291.444L630.305 291.459ZM621.619 286.521H619.638V296.656H621.619V286.521ZM617.733 289.142H615.752V293.486C615.752 294.827 614.868 295.193 614.228 295.193C613.619 295.193 612.948 294.965 612.948 293.806V289.142H610.967V294.081C610.967 296.001 612.034 296.855 613.527 296.855C614.579 296.855 615.371 296.397 615.813 295.605H615.844V296.672H617.733V289.158V289.142ZM605.451 296.656H607.432V292.739C607.432 291.901 607.721 290.941 609.261 290.941C609.443 290.941 609.657 290.941 609.824 290.971V288.959L609.443 288.929C608.24 288.929 607.798 289.661 607.386 290.423H607.356V289.127H605.466V296.641L605.451 296.656ZM601.763 293.959C601.763 294.873 600.879 295.437 599.995 295.437C599.614 295.437 599.081 295.224 599.081 294.538C599.081 293.715 599.691 293.532 600.422 293.41C601.245 293.273 601.565 293.151 601.763 292.998V293.959ZM603.698 291.124C603.698 289.28 601.763 288.944 600.696 288.944C599.157 288.944 597.557 289.264 597.329 291.566H599.233C599.294 291.124 599.462 290.514 600.453 290.514C600.955 290.514 601.748 290.56 601.748 291.383C601.748 291.81 601.367 291.932 601.062 291.977L599.279 292.252C598.03 292.435 597.085 293.181 597.085 294.66C597.085 296.214 598.243 296.855 599.371 296.855C600.712 296.855 601.352 296.23 601.794 295.772C601.839 296.199 601.87 296.306 601.976 296.656H604.11V296.367C603.866 296.275 603.668 296.077 603.668 295.193V291.124H603.698ZM595.759 289.142H593.778V293.486C593.778 294.827 592.894 295.193 592.254 295.193C591.645 295.193 590.974 294.965 590.974 293.806V289.142H588.993V294.081C588.993 296.001 590.06 296.855 591.553 296.855C592.605 296.855 593.397 296.397 593.839 295.605H593.869V296.672H595.759V289.158V289.142ZM582.913 292.892H585.275C584.833 294.934 583.278 295.117 582.821 295.117C581.374 295.117 579.865 294.401 579.865 291.627C579.865 289.02 581.267 287.984 582.776 287.984C584.284 287.984 585 289.249 585 289.645H587.119C587.012 288.243 585.778 286.231 582.669 286.231C579.255 286.231 577.716 288.838 577.716 291.596C577.716 295.163 579.941 296.9 582.379 296.9C584.223 296.9 585 295.986 585.549 295.361L585.762 296.641H587.18V291.169H582.943V292.877L582.913 292.892ZM572.779 291.779H570.661V293.608H572.779V291.779ZM563.864 292.892C563.864 293.852 563.575 295.178 562.051 295.178C560.527 295.178 560.237 293.852 560.237 292.892C560.237 291.932 560.527 290.606 562.051 290.606C563.575 290.606 563.864 291.932 563.864 292.892ZM565.891 292.892C565.891 290.179 564.062 288.929 562.051 288.929C560.039 288.929 558.211 290.179 558.211 292.892C558.211 295.605 560.039 296.839 562.051 296.839C564.062 296.839 565.891 295.59 565.891 292.892ZM556.153 287.1H554.172V289.142H553.151V290.56H554.172V295.117C554.172 296.092 554.477 296.733 556.199 296.733H556.458C556.763 296.733 557.083 296.733 557.388 296.702V295.208L556.976 295.239C556.169 295.239 556.153 295.071 556.153 294.629V290.545H557.388V289.127H556.153V287.085V287.1ZM548.138 296.656H550.119V292.739C550.119 291.901 550.408 290.941 551.948 290.941C552.13 290.941 552.344 290.941 552.511 290.971V288.959L552.13 288.929C550.927 288.929 550.469 289.661 550.073 290.423H550.043V289.127H548.153V296.641L548.138 296.656ZM544.74 292.892C544.74 293.852 544.465 295.178 542.926 295.178C541.387 295.178 541.113 293.852 541.113 292.892C541.113 291.932 541.402 290.606 542.926 290.606C544.45 290.606 544.74 291.932 544.74 292.892ZM546.766 292.892C546.766 290.179 544.953 288.929 542.926 288.929C540.899 288.929 539.086 290.179 539.086 292.892C539.086 295.605 540.899 296.839 542.926 296.839C544.953 296.839 546.766 295.59 546.766 292.892ZM532.747 289.142H530.857V299.598H532.838V295.696H532.869C533.112 296.108 533.6 296.855 534.987 296.855C537.212 296.855 538.156 294.873 538.156 292.816C538.156 290.209 536.694 288.944 535.033 288.944C533.707 288.944 533.158 289.63 532.792 290.225H532.762V289.142H532.747ZM532.747 293.075C532.747 291.871 533.067 290.667 534.423 290.667C535.673 290.667 536.099 291.779 536.099 292.968C536.099 293.852 535.749 295.239 534.469 295.239C533.189 295.239 532.731 294.187 532.731 293.075H532.747ZM527.474 292.907C527.474 293.867 527.185 295.193 525.661 295.193C524.137 295.193 523.847 293.867 523.847 292.907C523.847 291.947 524.137 290.621 525.661 290.621C527.185 290.621 527.474 291.947 527.474 292.907ZM529.501 292.907C529.501 290.194 527.672 288.944 525.661 288.944C523.649 288.944 521.821 290.194 521.821 292.907C521.821 295.62 523.649 296.855 525.661 296.855C527.672 296.855 529.501 295.605 529.501 292.907ZM517.036 296.672H519.017V292.755C519.017 291.916 519.306 290.956 520.845 290.956C521.028 290.956 521.241 290.956 521.409 290.987V288.975L521.028 288.944C519.824 288.944 519.382 289.676 518.971 290.438H518.94V289.142H517.051V296.656L517.036 296.672ZM510.635 292.16C510.742 291.169 511.245 290.575 512.174 290.575C512.814 290.575 513.592 290.941 513.698 292.16H510.635ZM513.622 294.462C513.47 294.995 512.906 295.285 512.357 295.285C510.757 295.285 510.65 294.02 510.589 293.456H515.74V293.105C515.74 289.676 513.698 288.959 512.205 288.959C508.913 288.959 508.608 291.855 508.608 292.755C508.608 295.849 510.239 296.87 512.357 296.87C513.637 296.87 515.131 296.275 515.664 294.477H513.622V294.462ZM503.168 288.807H503.199L504.464 292.816H501.873L503.168 288.807ZM501.309 294.568H505.058L505.713 296.656H508.014L504.448 286.521H502.01L498.398 296.656H500.623L501.324 294.568H501.309Z" fill="#231F20"/>
<path d="M617.779 354.696H615.889V365.152H617.87V361.25H617.901C618.144 361.662 618.632 362.409 620.019 362.409C622.244 362.409 623.188 360.427 623.188 358.369C623.188 355.763 621.725 354.498 620.064 354.498C618.739 354.498 618.19 355.184 617.824 355.778H617.794V354.696H617.779ZM617.779 358.629C617.779 357.425 618.099 356.22 619.455 356.22C620.72 356.22 621.131 357.333 621.131 358.522C621.131 359.406 620.781 360.793 619.516 360.793C618.251 360.793 617.779 359.741 617.779 358.629ZM612.232 359.513C612.232 360.427 611.348 360.991 610.464 360.991C610.083 360.991 609.55 360.778 609.55 360.092C609.55 359.269 610.159 359.086 610.891 358.964C611.714 358.827 612.034 358.705 612.232 358.552V359.513ZM614.167 356.678C614.167 354.833 612.232 354.498 611.18 354.498C609.641 354.498 608.041 354.818 607.812 357.135H609.717C609.778 356.693 609.946 356.083 610.936 356.083C611.439 356.083 612.232 356.129 612.232 356.967C612.232 357.394 611.851 357.516 611.546 357.562L609.763 357.836C608.513 358.019 607.569 358.766 607.569 360.244C607.569 361.799 608.727 362.439 609.854 362.439C611.195 362.439 611.836 361.814 612.277 361.357C612.323 361.784 612.354 361.89 612.46 362.241H614.594V361.951C614.35 361.86 614.152 361.662 614.152 360.778V356.708L614.167 356.678ZM604.688 359.482C604.688 359.833 604.353 360.793 603.348 360.793C601.854 360.793 601.824 359.162 601.824 358.354C601.824 357.425 602.144 356.205 603.393 356.175C604.308 356.144 604.628 356.891 604.704 357.394H606.715C606.532 355.047 604.582 354.513 603.393 354.513C600.848 354.513 599.797 356.251 599.797 358.674C599.797 360.259 600.452 362.424 603.271 362.424C606.09 362.424 606.639 360.259 606.7 359.482H604.688ZM593.808 357.714C593.915 356.723 594.418 356.129 595.347 356.129C595.987 356.129 596.764 356.495 596.871 357.714H593.808ZM596.795 360.016C596.642 360.549 596.079 360.839 595.53 360.839C593.93 360.839 593.823 359.574 593.762 359.01H598.913V358.659C598.913 355.23 596.856 354.513 595.378 354.513C592.086 354.513 591.781 357.409 591.781 358.309C591.781 361.403 593.412 362.424 595.53 362.424C596.81 362.424 598.319 361.829 598.837 360.016H596.81H596.795ZM590.913 355.397C590.791 353.904 589.572 351.816 586.539 351.816C583.918 351.816 581.876 353.629 581.876 357.165C581.876 360.701 583.811 362.485 586.509 362.485C589.053 362.485 590.486 360.945 590.913 358.735H588.794C588.535 359.97 587.713 360.641 586.554 360.641C584.756 360.641 584.04 359.01 584.04 357.181C584.04 354.315 585.533 353.629 586.554 353.629C588.307 353.629 588.627 354.773 588.794 355.382H590.913V355.397ZM576.939 357.348H574.821V359.193H576.939V357.348ZM569.761 356.998C569.609 354.879 567.856 354.513 566.394 354.513C564.047 354.513 563.361 355.931 563.361 357.028C563.361 359.833 568.024 358.888 568.024 360.153C568.024 360.442 567.78 360.93 566.759 360.93C565.525 360.93 565.113 360.458 565.113 359.833H563.087C563.148 361.845 564.991 362.439 566.698 362.439C567.872 362.439 569.99 362.043 569.99 359.848C569.99 357.074 565.281 357.943 565.281 356.754C565.281 356.434 565.418 356.022 566.5 356.022C567.582 356.022 567.75 356.525 567.826 357.013H569.761V356.998ZM560.161 358.461C560.161 359.421 559.871 360.747 558.347 360.747C556.824 360.747 556.534 359.421 556.534 358.461C556.534 357.501 556.808 356.175 558.347 356.175C559.887 356.175 560.161 357.501 560.161 358.461ZM562.188 358.461C562.188 355.748 560.359 354.498 558.347 354.498C556.336 354.498 554.507 355.748 554.507 358.461C554.507 361.174 556.336 362.424 558.347 362.424C560.359 362.424 562.188 361.189 562.188 358.461ZM553.105 357.013C553.105 355.367 551.962 354.498 550.484 354.498C549.418 354.498 548.564 355.047 548.305 355.672H548.275V352.075H546.294V362.21H548.275V357.897C548.275 356.754 548.96 356.159 549.829 356.159C551.094 356.159 551.109 357.089 551.109 357.638V362.195H553.09V356.998L553.105 357.013ZM544.419 352.075H542.438V362.21H544.419V352.075ZM540.533 354.696H538.552V359.04C538.552 360.381 537.684 360.747 537.028 360.747C536.419 360.747 535.748 360.519 535.748 359.36V354.696H533.767V359.635C533.767 361.555 534.834 362.409 536.327 362.409C537.379 362.409 538.156 361.951 538.613 361.159H538.644V362.21H540.533V354.696ZM528.251 362.21H530.232V358.293C530.232 357.455 530.506 356.495 532.045 356.495C532.228 356.495 532.441 356.495 532.609 356.525V354.513L532.228 354.483C531.024 354.483 530.582 355.215 530.171 355.977H530.14V354.681H528.251V362.195V362.21ZM524.563 359.513C524.563 360.427 523.679 360.991 522.795 360.991C522.414 360.991 521.881 360.778 521.881 360.092C521.881 359.269 522.491 359.086 523.222 358.964C524.045 358.842 524.365 358.705 524.563 358.552V359.513ZM526.498 356.678C526.498 354.833 524.563 354.498 523.512 354.498C521.972 354.498 520.372 354.818 520.144 357.135H522.049C522.11 356.693 522.277 356.083 523.268 356.083C523.771 356.083 524.563 356.129 524.563 356.967C524.563 357.394 524.182 357.516 523.877 357.562L522.094 357.836C520.845 358.019 519.9 358.766 519.9 360.244C519.9 361.799 521.058 362.439 522.186 362.439C523.527 362.439 524.167 361.814 524.624 361.357C524.67 361.784 524.7 361.89 524.807 362.241H526.94V361.951C526.696 361.86 526.498 361.662 526.498 360.778V356.708V356.678ZM518.559 354.696H516.578V359.04C516.578 360.381 515.709 360.747 515.054 360.747C514.445 360.747 513.774 360.519 513.774 359.36V354.696H511.793V359.635C511.793 361.555 512.875 362.409 514.353 362.409C515.405 362.409 516.197 361.951 516.639 361.159H516.669V362.21H518.559V354.696ZM505.713 358.446H508.075C507.633 360.488 506.078 360.671 505.621 360.671C504.189 360.671 502.665 359.955 502.665 357.181C502.665 354.574 504.067 353.538 505.576 353.538C507.084 353.538 507.785 354.803 507.785 355.199H509.903C509.781 353.797 508.562 351.785 505.454 351.785C502.04 351.785 500.501 354.391 500.501 357.15C500.501 360.717 502.726 362.454 505.164 362.454C507.008 362.454 507.785 361.54 508.334 360.915L508.547 362.18H509.964V356.708H505.728V358.415L505.713 358.446Z" fill="#231F20"/>
<path fill-rule="evenodd" clip-rule="evenodd" d="M228.535 690.285C226.294 692.587 222.607 692.632 220.306 690.407C218.005 688.167 217.959 684.478 220.199 682.177L479.669 414.413V288.396C479.669 285.18 482.275 282.558 485.506 282.558C488.737 282.558 491.342 285.164 491.342 288.396V416.745H491.327C491.327 418.208 490.779 419.671 489.681 420.799L228.55 690.285H228.535ZM485.506 360.9C488.051 360.9 490.108 358.842 490.108 356.297C490.108 353.751 488.051 351.694 485.506 351.694C482.961 351.694 480.904 353.751 480.904 356.297C480.904 358.842 482.961 360.9 485.506 360.9ZM485.491 295.513C487.457 295.513 489.057 293.913 489.057 291.947C489.057 289.981 487.457 288.38 485.491 288.38C483.525 288.38 481.925 289.981 481.925 291.947C481.925 293.913 483.525 295.513 485.491 295.513Z" fill="white"/>
<path fill-rule="evenodd" clip-rule="evenodd" d="M459.889 288.446C459.889 282.121 454.768 277 448.444 277C442.12 277 437 282.121 437 288.446C437 294.772 442.12 299.893 448.444 299.893C454.768 299.893 459.889 294.772 459.889 288.446ZM449.74 281.466H443.355L443.324 281.435V295.32H449.176C449.801 295.32 450.441 295.275 451.081 295.168C451.721 295.061 452.3 294.863 452.818 294.558C453.336 294.269 453.763 293.857 454.098 293.339C454.433 292.821 454.601 292.15 454.601 291.312C454.601 289.65 453.671 288.629 451.797 288.248V288.203C452.574 287.943 453.184 287.562 453.61 287.044C454.037 286.541 454.25 285.84 454.25 284.971C454.25 284.377 454.144 283.859 453.915 283.417C453.687 282.975 453.382 282.609 452.97 282.319C452.559 282.045 452.086 281.832 451.538 281.679C450.989 281.542 450.395 281.466 449.74 281.466ZM448.155 292.729H447.088V289.468H448.216C448.536 289.468 448.856 289.483 449.176 289.513C449.496 289.544 449.785 289.62 450.044 289.727C450.304 289.833 450.517 290.001 450.684 290.23C450.852 290.458 450.928 290.778 450.928 291.129C450.928 291.479 450.837 291.769 450.684 291.982C450.517 292.196 450.304 292.364 450.044 292.47C449.77 292.577 449.481 292.653 449.145 292.684C448.825 292.714 448.49 292.729 448.155 292.729ZM448.094 286.953H447.058L447.042 286.938V284.072H448.124C448.429 284.072 448.734 284.087 449.024 284.118C449.313 284.148 449.572 284.209 449.801 284.301C450.029 284.392 450.212 284.529 450.349 284.712C450.486 284.91 450.563 285.154 450.563 285.474C450.563 285.779 450.502 286.008 450.349 286.206C450.212 286.389 450.014 286.541 449.785 286.648C449.542 286.755 449.283 286.831 448.993 286.877C448.688 286.937 448.399 286.953 448.094 286.953Z" fill="#231F20"/>
<path d="M543.277 309.459C542.972 309.581 542.515 309.688 541.905 309.78C541.555 309.825 541.311 309.886 541.174 309.947C541.036 310.008 540.915 310.1 540.838 310.222C540.762 310.343 540.716 310.481 540.716 310.618C540.716 310.846 540.808 311.029 540.975 311.182C541.143 311.334 541.402 311.41 541.722 311.41C542.042 311.41 542.332 311.334 542.591 311.197C542.85 311.06 543.033 310.862 543.155 310.618C543.246 310.435 543.292 310.145 543.292 309.78V309.475L543.277 309.459ZM543.353 311.319C543.033 311.578 542.743 311.776 542.454 311.883C542.164 311.99 541.859 312.051 541.524 312.051C540.976 312.051 540.564 311.913 540.259 311.654C539.97 311.395 539.817 311.045 539.817 310.633C539.817 310.389 539.878 310.176 539.985 309.962C540.092 309.764 540.244 309.597 540.427 309.475C540.61 309.353 540.808 309.261 541.036 309.2C541.204 309.155 541.448 309.109 541.783 309.078C542.469 309.002 542.972 308.896 543.292 308.789C543.292 308.667 543.292 308.606 543.292 308.575C543.292 308.24 543.216 307.996 543.048 307.859C542.835 307.676 542.515 307.57 542.088 307.57C541.692 307.57 541.402 307.646 541.204 307.783C541.021 307.92 540.869 308.164 540.777 308.514L539.954 308.393C540.031 308.042 540.153 307.752 540.32 307.539C540.488 307.326 540.747 307.158 541.067 307.036C541.387 306.914 541.768 306.868 542.195 306.868C542.621 306.868 542.972 306.914 543.231 307.021C543.49 307.128 543.688 307.249 543.81 307.402C543.932 307.554 544.023 307.752 544.069 307.981C544.099 308.118 544.115 308.377 544.115 308.758V309.871C544.115 310.648 544.13 311.151 544.16 311.349C544.191 311.563 544.267 311.761 544.359 311.944H543.475C543.383 311.761 543.338 311.563 543.307 311.319H543.353Z" fill="#231F20"/>
<path d="M546.233 305.085H545.395V311.944H546.233V305.085Z" fill="#231F20"/>
<path d="M547.543 311.944V306.975H548.305V307.676C548.457 307.432 548.671 307.234 548.93 307.097C549.189 306.945 549.478 306.868 549.814 306.868C550.179 306.868 550.484 306.945 550.713 307.097C550.941 307.249 551.109 307.463 551.216 307.737C551.612 307.158 552.13 306.868 552.755 306.868C553.242 306.868 553.623 307.006 553.898 307.28C554.157 307.554 554.294 307.966 554.294 308.545V311.959H553.456V308.835C553.456 308.499 553.425 308.255 553.379 308.103C553.318 307.951 553.227 307.844 553.075 307.752C552.938 307.661 552.755 307.615 552.572 307.615C552.221 307.615 551.932 307.737 551.703 307.966C551.475 308.194 551.353 308.575 551.353 309.078V311.959H550.515V308.728C550.515 308.362 550.438 308.072 550.301 307.89C550.164 307.707 549.936 307.615 549.631 307.615C549.402 307.615 549.174 307.676 548.975 307.798C548.777 307.92 548.625 308.103 548.534 308.347C548.442 308.591 548.396 308.926 548.396 309.383V311.959H547.558L547.543 311.944Z" fill="#231F20"/>
<path d="M556.153 308.987H558.926C558.896 308.575 558.789 308.255 558.606 308.042C558.347 307.722 557.996 307.554 557.57 307.554C557.189 307.554 556.854 307.676 556.594 307.935C556.335 308.194 556.183 308.545 556.153 308.972M558.911 310.328L559.779 310.45C559.642 310.953 559.383 311.349 559.017 311.624C558.652 311.898 558.179 312.05 557.6 312.05C556.869 312.05 556.305 311.822 555.878 311.38C555.452 310.938 555.238 310.313 555.238 309.505C555.238 308.697 555.452 308.027 555.878 307.569C556.305 307.112 556.869 306.884 557.555 306.884C558.24 306.884 558.758 307.112 559.17 307.554C559.597 308.011 559.795 308.636 559.795 309.459C559.795 309.505 559.795 309.581 559.795 309.688H556.092C556.122 310.237 556.274 310.648 556.549 310.938C556.823 311.227 557.174 311.365 557.585 311.365C557.89 311.365 558.149 311.288 558.377 311.121C558.591 310.953 558.774 310.694 558.896 310.343L558.911 310.328Z" fill="#231F20"/>
<path d="M562.965 311.944V306.975H563.727V307.737C563.925 307.387 564.092 307.158 564.26 307.036C564.428 306.929 564.611 306.868 564.809 306.868C565.098 306.868 565.388 306.96 565.677 307.128L565.373 307.905C565.174 307.783 564.961 307.737 564.763 307.737C564.58 307.737 564.413 307.798 564.275 307.905C564.123 308.012 564.032 308.164 563.971 308.362C563.879 308.667 563.833 308.987 563.833 309.338V311.929H562.995L562.965 311.944Z" fill="#231F20"/>
<path d="M569.334 309.459C569.029 309.581 568.572 309.688 567.963 309.78C567.612 309.825 567.368 309.886 567.231 309.947C567.094 310.008 566.972 310.1 566.896 310.222C566.82 310.343 566.774 310.481 566.774 310.618C566.774 310.846 566.866 311.029 567.033 311.182C567.201 311.334 567.46 311.41 567.78 311.41C568.1 311.41 568.389 311.334 568.648 311.197C568.908 311.06 569.09 310.862 569.212 310.618C569.304 310.435 569.349 310.145 569.349 309.78V309.475L569.334 309.459ZM569.41 311.319C569.09 311.578 568.801 311.776 568.511 311.883C568.222 311.99 567.917 312.051 567.582 312.051C567.033 312.051 566.622 311.913 566.317 311.654C566.027 311.395 565.875 311.045 565.875 310.633C565.875 310.389 565.936 310.176 566.043 309.962C566.149 309.764 566.302 309.597 566.485 309.475C566.667 309.353 566.866 309.261 567.094 309.2C567.262 309.155 567.506 309.109 567.841 309.078C568.527 309.002 569.029 308.896 569.349 308.789C569.349 308.667 569.349 308.606 569.349 308.575C569.349 308.24 569.273 307.996 569.106 307.859C568.892 307.676 568.572 307.57 568.146 307.57C567.749 307.57 567.46 307.646 567.262 307.783C567.079 307.92 566.926 308.164 566.835 308.514L566.012 308.393C566.088 308.042 566.21 307.752 566.378 307.539C566.546 307.326 566.805 307.158 567.125 307.036C567.445 306.914 567.826 306.868 568.252 306.868C568.679 306.868 569.029 306.914 569.288 307.021C569.548 307.128 569.746 307.249 569.868 307.402C569.989 307.554 570.081 307.752 570.127 307.981C570.157 308.118 570.172 308.377 570.172 308.758V309.871C570.172 310.648 570.188 311.151 570.218 311.349C570.248 311.563 570.325 311.761 570.416 311.944H569.532C569.441 311.761 569.395 311.563 569.365 311.319H569.41Z" fill="#231F20"/>
<path d="M534.682 321.836H536.389C536.678 321.836 536.892 321.836 537.013 321.805C537.227 321.775 537.394 321.714 537.532 321.622C537.669 321.531 537.791 321.409 537.882 321.241C537.973 321.073 538.019 320.875 538.019 320.662C538.019 320.403 537.958 320.189 537.821 319.991C537.684 319.808 537.501 319.671 537.272 319.595C537.044 319.519 536.709 319.473 536.267 319.473H534.682V321.836ZM534.682 318.665H536.16C536.556 318.665 536.846 318.635 537.029 318.589C537.257 318.513 537.44 318.406 537.547 318.239C537.669 318.086 537.73 317.873 537.73 317.644C537.73 317.416 537.669 317.217 537.562 317.05C537.455 316.882 537.303 316.76 537.09 316.699C536.892 316.638 536.541 316.608 536.053 316.608H534.682V318.681V318.665ZM533.768 322.643V315.785H536.343C536.861 315.785 537.288 315.861 537.608 315.998C537.928 316.135 538.172 316.349 538.354 316.638C538.537 316.928 538.629 317.233 538.629 317.537C538.629 317.827 538.553 318.101 538.385 318.36C538.233 318.62 537.989 318.833 537.669 318.985C538.08 319.107 538.4 319.321 538.629 319.61C538.857 319.9 538.964 320.25 538.964 320.647C538.964 320.967 538.903 321.272 538.766 321.546C538.629 321.82 538.461 322.034 538.263 322.186C538.065 322.339 537.806 322.445 537.516 322.521C537.212 322.598 536.846 322.643 536.404 322.643H533.783H533.768Z" fill="#231F20"/>
<path d="M543.277 320.144C542.972 320.266 542.515 320.372 541.905 320.464C541.555 320.51 541.311 320.571 541.174 320.632C541.036 320.693 540.915 320.784 540.838 320.906C540.762 321.028 540.716 321.165 540.716 321.302C540.716 321.531 540.808 321.714 540.975 321.866C541.143 322.019 541.402 322.095 541.722 322.095C542.042 322.095 542.332 322.019 542.591 321.881C542.85 321.744 543.033 321.546 543.155 321.302C543.246 321.119 543.292 320.83 543.292 320.464V320.159L543.277 320.144ZM543.353 322.003C543.033 322.262 542.743 322.461 542.454 322.567C542.164 322.674 541.859 322.735 541.524 322.735C540.976 322.735 540.564 322.598 540.259 322.339C539.97 322.079 539.817 321.729 539.817 321.317C539.817 321.074 539.878 320.86 539.985 320.647C540.092 320.449 540.244 320.281 540.427 320.159C540.61 320.037 540.808 319.946 541.036 319.885C541.204 319.839 541.448 319.793 541.783 319.763C542.469 319.687 542.972 319.58 543.292 319.473C543.292 319.351 543.292 319.29 543.292 319.26C543.292 318.924 543.216 318.681 543.048 318.543C542.835 318.361 542.515 318.254 542.088 318.254C541.692 318.254 541.402 318.33 541.204 318.467C541.021 318.604 540.869 318.848 540.777 319.199L539.954 319.077C540.031 318.726 540.153 318.437 540.32 318.223C540.488 318.01 540.747 317.842 541.067 317.72C541.387 317.598 541.768 317.553 542.195 317.553C542.621 317.553 542.972 317.598 543.231 317.705C543.49 317.812 543.688 317.934 543.81 318.086C543.932 318.239 544.023 318.437 544.069 318.665C544.099 318.803 544.115 319.062 544.115 319.443V320.555C544.115 321.333 544.13 321.836 544.16 322.034C544.191 322.247 544.267 322.445 544.359 322.628H543.475C543.383 322.445 543.338 322.247 543.307 322.003H543.353Z" fill="#231F20"/>
<path d="M545.41 322.643V317.675H546.172V318.437C546.37 318.086 546.538 317.857 546.705 317.736C546.873 317.629 547.056 317.568 547.254 317.568C547.544 317.568 547.833 317.659 548.123 317.827L547.818 318.604C547.62 318.482 547.406 318.437 547.208 318.437C547.025 318.437 546.858 318.498 546.721 318.604C546.568 318.711 546.477 318.863 546.416 319.062C546.324 319.366 546.279 319.686 546.279 320.037V322.628H545.441L545.41 322.643Z" fill="#231F20"/>
<path d="M548.595 322.643V317.675H549.357V318.437C549.555 318.086 549.722 317.857 549.89 317.736C550.058 317.629 550.241 317.568 550.439 317.568C550.728 317.568 551.018 317.659 551.307 317.827L551.002 318.604C550.804 318.482 550.591 318.437 550.393 318.437C550.21 318.437 550.042 318.498 549.905 318.604C549.753 318.711 549.661 318.863 549.601 319.062C549.509 319.366 549.463 319.686 549.463 320.037V322.628H548.625L548.595 322.643Z" fill="#231F20"/>
<path d="M554.98 320.144C554.675 320.266 554.218 320.372 553.608 320.464C553.258 320.51 553.014 320.571 552.877 320.632C552.74 320.693 552.618 320.784 552.541 320.906C552.465 321.028 552.42 321.165 552.42 321.302C552.42 321.531 552.511 321.714 552.679 321.866C552.846 322.019 553.105 322.095 553.425 322.095C553.745 322.095 554.035 322.019 554.294 321.881C554.553 321.744 554.736 321.546 554.858 321.302C554.949 321.119 554.995 320.83 554.995 320.464V320.159L554.98 320.144ZM555.056 322.003C554.736 322.262 554.446 322.461 554.157 322.567C553.867 322.674 553.562 322.735 553.227 322.735C552.679 322.735 552.267 322.598 551.962 322.339C551.673 322.079 551.521 321.729 551.521 321.317C551.521 321.074 551.581 320.86 551.688 320.647C551.795 320.449 551.947 320.281 552.13 320.159C552.313 320.037 552.511 319.946 552.74 319.885C552.907 319.839 553.151 319.793 553.486 319.763C554.172 319.687 554.675 319.58 554.995 319.473C554.995 319.351 554.995 319.29 554.995 319.26C554.995 318.924 554.919 318.681 554.751 318.543C554.538 318.361 554.218 318.254 553.791 318.254C553.395 318.254 553.105 318.33 552.907 318.467C552.724 318.604 552.572 318.848 552.481 319.199L551.658 319.077C551.734 318.726 551.856 318.437 552.023 318.223C552.191 318.01 552.45 317.842 552.77 317.72C553.09 317.598 553.471 317.553 553.898 317.553C554.324 317.553 554.675 317.598 554.934 317.705C555.193 317.812 555.391 317.934 555.513 318.086C555.635 318.239 555.726 318.437 555.772 318.665C555.803 318.803 555.818 319.062 555.818 319.443V320.555C555.818 321.333 555.833 321.836 555.864 322.034C555.894 322.247 555.97 322.445 556.062 322.628H555.178C555.086 322.445 555.041 322.247 555.01 322.003H555.056Z" fill="#231F20"/>
<path d="M568.878 322.643V321.912C568.497 322.476 567.964 322.75 567.309 322.75C567.019 322.75 566.745 322.689 566.486 322.582C566.227 322.476 566.044 322.323 565.922 322.156C565.8 321.988 565.709 321.775 565.663 321.531C565.632 321.363 565.617 321.104 565.617 320.738V317.659H566.455V320.403C566.455 320.845 566.47 321.134 566.501 321.287C566.547 321.515 566.669 321.683 566.836 321.805C567.004 321.927 567.217 321.988 567.476 321.988C567.735 321.988 567.964 321.927 568.177 321.79C568.391 321.653 568.558 321.485 568.65 321.256C568.741 321.028 568.787 320.708 568.787 320.281V317.629H569.625V322.598H568.863L568.878 322.643Z" fill="#231F20"/>
<path d="M570.949 322.643V317.675H571.711V318.376C572.077 317.827 572.595 317.568 573.296 317.568C573.601 317.568 573.875 317.629 574.119 317.736C574.363 317.842 574.561 317.979 574.683 318.162C574.805 318.33 574.896 318.543 574.942 318.787C574.972 318.94 574.987 319.214 574.987 319.61V322.659H574.149V319.641C574.149 319.29 574.119 319.046 574.058 318.879C573.997 318.711 573.875 318.574 573.707 318.467C573.54 318.36 573.342 318.315 573.128 318.315C572.778 318.315 572.458 318.421 572.199 318.65C571.94 318.879 571.803 319.305 571.803 319.946V322.659H570.964L570.949 322.643Z" fill="#231F20"/>
<path d="M576.817 320.159C576.817 320.799 576.955 321.272 577.214 321.576C577.488 321.897 577.793 322.049 578.158 322.049C578.524 322.049 578.844 321.897 579.103 321.592C579.362 321.287 579.484 320.83 579.484 320.22C579.484 319.549 579.347 319.046 579.088 318.726C578.829 318.406 578.509 318.254 578.113 318.254C577.717 318.254 577.427 318.406 577.168 318.711C576.924 319.016 576.787 319.504 576.787 320.159M579.454 322.643V322.018C579.134 322.506 578.677 322.75 578.067 322.75C577.671 322.75 577.305 322.643 576.985 322.43C576.65 322.217 576.391 321.912 576.208 321.516C576.025 321.119 575.934 320.677 575.934 320.174C575.934 319.671 576.01 319.229 576.177 318.833C576.345 318.437 576.589 318.117 576.924 317.903C577.259 317.69 577.625 317.583 578.037 317.583C578.341 317.583 578.6 317.644 578.829 317.766C579.058 317.888 579.256 318.056 579.393 318.254V315.785H580.231V322.643H579.439H579.454Z" fill="#231F20"/>
<path fill-rule="evenodd" clip-rule="evenodd" d="M508.837 302.418C515.191 302.418 520.342 307.57 520.342 313.925C520.342 320.281 515.191 325.417 508.837 325.417C502.482 325.417 497.347 320.266 497.347 313.925C497.347 307.585 502.497 302.418 508.837 302.418Z" fill="#008061"/>
<path fill-rule="evenodd" clip-rule="evenodd" d="M510.985 312.538C512.54 312.538 515.374 311.212 517.111 310.923C517.523 310.862 517.919 310.816 518.346 310.816C518.544 310.816 518.635 310.892 518.803 310.938C518.971 310.984 519.062 310.938 519.275 311.045C519.565 311.166 519.534 311.227 519.367 311.456L519.291 311.548L518.986 311.822L518.879 311.898L518.544 312.142L518.056 312.416L517.797 312.538C517.63 312.63 517.447 312.691 517.279 312.767C516.715 312.995 516.136 313.133 515.557 313.331L514.414 313.697C514.262 313.758 513.667 313.91 513.561 313.986L512.022 314.733L511.808 314.885L511.595 315.053C511.214 315.419 510.848 315.693 510.483 316.029L510.437 316.074L509.644 316.714C509.187 317.08 508.715 317.446 508.227 317.797L507.587 318.239L507.557 318.178C507.343 318.223 507.465 318.269 506.932 318.345C506.658 318.391 506.749 318.421 506.521 318.254L506.399 318.162C506.566 318.071 506.627 318.101 506.81 318.117L507.008 318.147L507.496 317.705C507.755 317.446 508.105 316.989 508.319 316.714C508.532 316.44 508.852 316.059 508.989 315.769L508.684 315.815C506.597 316.105 504.616 316.638 502.437 316.867L502.132 316.897L501.842 316.928L501.537 316.958L501.172 317.004C500.974 317.172 500.486 317.553 500.303 317.705C499.968 318.01 499.541 318.04 499.389 318.117L499.617 317.69L499.861 317.278L500.014 316.989H499.876L499.587 317.019H499.419L499.343 316.806L499.892 316.532L499.861 316.486L499.526 316.166L499.313 315.937L498.734 315.343H498.794L498.855 315.312L499.008 315.282L498.444 314.687L498.398 314.642L498.2 314.428L498.337 314.382L499.145 314.154L499.282 314.184H499.404C499.526 314.215 500.395 314.626 500.638 314.718L500.76 314.763L501.248 314.977C501.461 315.068 501.781 315.251 501.979 315.297C503.29 315.678 506.688 314.123 508.517 313.712L508.639 313.681V313.651C508.639 313.651 507.282 312.203 506.978 311.883C506.703 311.578 506.49 311.349 505.774 310.465L505.652 310.343L505.515 310.206L505.408 310.069L505.134 309.673L505.073 309.581L505.378 309.536L505.469 309.581L505.56 309.627L506.018 309.871L506.109 309.917H506.292L506.338 309.962L506.46 309.993C506.764 310.161 507.206 310.45 507.526 310.633L508.075 310.953L508.441 311.166L508.974 311.471L509.065 311.517C509.34 311.685 509.629 311.822 509.888 311.99L510.452 312.294L510.925 312.538L511.031 312.584L510.985 312.538Z" fill="#231F20"/>
<path fill-rule="evenodd" clip-rule="evenodd" d="M524.229 310.542V316.303L530.019 316.288L530.004 314.779H526.834L530.537 311.075L529.455 309.993L525.752 313.697V310.542H524.229Z" fill="#231F20"/>
<path d="M534.727 308.347H536.494C537.089 308.347 537.5 308.24 537.744 308.027C537.988 307.813 538.11 307.509 538.11 307.097C538.11 306.807 538.034 306.564 537.896 306.365C537.744 306.167 537.561 306.03 537.317 305.954C537.165 305.908 536.875 305.893 536.464 305.893H534.712V308.347H534.727ZM533.812 311.944V305.085H536.403C536.86 305.085 537.211 305.1 537.439 305.146C537.775 305.207 538.064 305.314 538.293 305.466C538.521 305.619 538.704 305.847 538.841 306.122C538.978 306.411 539.055 306.716 539.055 307.051C539.055 307.631 538.872 308.118 538.491 308.53C538.125 308.926 537.455 309.139 536.479 309.139H534.727V311.929H533.812V311.944Z" fill="#231F20"/>
<path d="M560.847 311.944V306.975H561.685V311.944H560.847ZM560.847 306.045V305.085H561.685V306.045H560.847Z" fill="#231F20"/>
<path d="M571.148 310.465L571.987 310.328C572.032 310.663 572.169 310.923 572.383 311.09C572.596 311.273 572.901 311.349 573.282 311.349C573.663 311.349 573.952 311.273 574.15 311.105C574.333 310.953 574.425 310.77 574.425 310.557C574.425 310.374 574.333 310.221 574.166 310.115C574.044 310.039 573.754 309.947 573.297 309.825C572.688 309.673 572.261 309.536 572.017 309.429C571.773 309.307 571.606 309.155 571.484 308.956C571.362 308.758 571.301 308.53 571.301 308.286C571.301 308.057 571.346 307.859 571.453 307.676C571.56 307.493 571.697 307.326 571.865 307.204C572.002 307.112 572.169 307.021 572.398 306.96C572.627 306.899 572.87 306.853 573.129 306.853C573.526 306.853 573.861 306.914 574.15 307.021C574.44 307.127 574.669 307.28 574.806 307.478C574.943 307.676 575.034 307.935 575.095 308.255L574.272 308.377C574.242 308.118 574.12 307.92 573.952 307.768C573.769 307.615 573.526 307.554 573.19 307.554C572.809 307.554 572.535 307.615 572.368 307.752C572.2 307.874 572.124 308.027 572.124 308.194C572.124 308.301 572.154 308.408 572.23 308.484C572.291 308.575 572.413 308.652 572.55 308.712C572.642 308.743 572.886 308.819 573.297 308.926C573.891 309.078 574.303 309.215 574.547 309.322C574.79 309.429 574.973 309.566 575.095 309.764C575.232 309.962 575.293 310.191 575.293 310.481C575.293 310.77 575.217 311.029 575.05 311.273C574.882 311.517 574.653 311.715 574.349 311.852C574.044 311.989 573.693 312.05 573.297 312.05C572.657 312.05 572.154 311.913 571.819 311.654C571.484 311.38 571.27 310.984 571.164 310.465" fill="#231F20"/>
<path d="M578.539 309.048H575.934V309.886H578.539V309.048Z" fill="#231F20"/>
<path d="M559.932 322.643V315.785H564.549V316.592H560.846V318.726H564.061V319.534H560.846V322.643H559.932Z" fill="#231F20"/>
<path d="M584.772 320.144C584.467 320.266 584.01 320.372 583.4 320.464C583.05 320.51 582.806 320.571 582.669 320.632C582.532 320.693 582.41 320.784 582.333 320.906C582.257 321.028 582.212 321.165 582.212 321.302C582.212 321.531 582.303 321.714 582.471 321.866C582.638 322.019 582.897 322.095 583.217 322.095C583.537 322.095 583.827 322.019 584.086 321.881C584.345 321.744 584.528 321.546 584.65 321.302C584.741 321.119 584.787 320.83 584.787 320.464V320.159L584.772 320.144ZM584.848 322.003C584.528 322.262 584.238 322.461 583.949 322.567C583.659 322.674 583.354 322.735 583.019 322.735C582.471 322.735 582.059 322.598 581.754 322.339C581.465 322.079 581.312 321.729 581.312 321.317C581.312 321.074 581.373 320.86 581.48 320.647C581.587 320.449 581.739 320.281 581.922 320.159C582.105 320.037 582.303 319.946 582.532 319.885C582.699 319.839 582.943 319.793 583.278 319.763C583.964 319.687 584.467 319.58 584.787 319.473C584.787 319.351 584.787 319.29 584.787 319.26C584.787 318.924 584.711 318.681 584.543 318.543C584.33 318.361 584.01 318.254 583.583 318.254C583.187 318.254 582.897 318.33 582.699 318.467C582.516 318.604 582.364 318.848 582.273 319.199L581.45 319.077C581.526 318.726 581.648 318.437 581.815 318.223C581.983 318.01 582.242 317.842 582.562 317.72C582.882 317.598 583.263 317.553 583.69 317.553C584.116 317.553 584.467 317.598 584.726 317.705C584.985 317.812 585.183 317.934 585.305 318.086C585.427 318.239 585.518 318.437 585.564 318.665C585.595 318.803 585.61 319.062 585.61 319.443V320.555C585.61 321.333 585.625 321.836 585.656 322.034C585.686 322.247 585.762 322.445 585.854 322.628H584.97C584.878 322.445 584.833 322.247 584.802 322.003H584.848Z" fill="#231F20"/>
<path d="M473.995 241.755V234.204H476.251V241.719C476.251 242.637 476.092 243.364 475.775 243.901C475.238 244.81 474.269 245.264 472.867 245.264C471.466 245.264 470.526 244.897 470.047 244.165C469.569 243.428 469.33 242.424 469.33 241.155V240.906H471.461V241.155C471.48 241.99 471.571 242.578 471.732 242.92C471.898 243.257 472.25 243.425 472.787 243.425C473.319 243.425 473.67 243.24 473.841 242.869C473.944 242.649 473.995 242.278 473.995 241.755ZM478.624 237.881C479.176 237.178 480.123 236.826 481.466 236.826C482.34 236.826 483.116 237 483.795 237.346C484.474 237.693 484.813 238.347 484.813 239.309V242.971C484.813 243.225 484.818 243.533 484.828 243.894C484.842 244.167 484.884 244.353 484.952 244.451C485.021 244.548 485.123 244.629 485.26 244.692V245H482.989C482.926 244.839 482.882 244.688 482.857 244.546C482.833 244.404 482.813 244.243 482.799 244.062C482.511 244.375 482.179 244.641 481.803 244.861C481.354 245.12 480.846 245.249 480.279 245.249C479.557 245.249 478.958 245.044 478.485 244.634C478.016 244.219 477.782 243.633 477.782 242.876C477.782 241.895 478.16 241.184 478.917 240.745C479.332 240.505 479.942 240.334 480.748 240.232L481.458 240.144C481.844 240.095 482.12 240.034 482.286 239.961C482.584 239.834 482.733 239.636 482.733 239.368C482.733 239.041 482.618 238.816 482.389 238.694C482.164 238.567 481.832 238.503 481.393 238.503C480.899 238.503 480.55 238.625 480.345 238.87C480.199 239.05 480.101 239.294 480.052 239.602H478.038C478.082 238.904 478.277 238.33 478.624 237.881ZM480.177 243.491C480.372 243.652 480.611 243.733 480.895 243.733C481.344 243.733 481.756 243.601 482.132 243.337C482.513 243.074 482.711 242.593 482.726 241.895V241.118C482.594 241.201 482.459 241.27 482.323 241.323C482.191 241.372 482.008 241.418 481.773 241.462L481.305 241.55C480.865 241.628 480.55 241.724 480.36 241.836C480.038 242.026 479.876 242.322 479.876 242.722C479.876 243.079 479.977 243.335 480.177 243.491ZM493.939 234.219V245H491.91V243.894C491.612 244.368 491.273 244.712 490.892 244.927C490.511 245.142 490.038 245.249 489.471 245.249C488.539 245.249 487.752 244.873 487.113 244.121C486.478 243.364 486.161 242.395 486.161 241.213C486.161 239.851 486.473 238.779 487.098 237.998C487.728 237.217 488.568 236.826 489.618 236.826C490.101 236.826 490.531 236.934 490.907 237.148C491.283 237.358 491.588 237.651 491.822 238.027V234.219H493.939ZM488.314 241.06C488.314 241.797 488.46 242.385 488.753 242.825C489.042 243.269 489.481 243.491 490.072 243.491C490.663 243.491 491.112 243.271 491.419 242.832C491.727 242.393 491.881 241.824 491.881 241.125C491.881 240.149 491.634 239.451 491.141 239.031C490.838 238.777 490.487 238.65 490.086 238.65C489.476 238.65 489.027 238.882 488.739 239.346C488.456 239.805 488.314 240.376 488.314 241.06ZM502.677 242.656C502.623 243.13 502.376 243.611 501.937 244.099C501.253 244.875 500.296 245.264 499.066 245.264C498.05 245.264 497.154 244.937 496.378 244.282C495.602 243.628 495.213 242.563 495.213 241.089C495.213 239.707 495.562 238.647 496.261 237.91C496.964 237.173 497.875 236.804 498.993 236.804C499.657 236.804 500.255 236.929 500.787 237.178C501.319 237.427 501.759 237.82 502.105 238.357C502.418 238.831 502.621 239.38 502.713 240.005C502.767 240.371 502.789 240.898 502.779 241.587H497.315C497.345 242.388 497.596 242.949 498.07 243.271C498.358 243.472 498.705 243.572 499.11 243.572C499.54 243.572 499.889 243.45 500.157 243.206C500.304 243.074 500.433 242.891 500.545 242.656H502.677ZM500.611 240.21C500.577 239.658 500.409 239.241 500.106 238.958C499.808 238.669 499.437 238.525 498.993 238.525C498.509 238.525 498.133 238.677 497.865 238.979C497.601 239.282 497.435 239.692 497.367 240.21H500.611Z" fill="black"/>
</svg>
